<svg xmlns="http://www.w3.org/2000/svg" xmlns:xlink="http://www.w3.org/1999/xlink" width="40" zoomAndPan="magnify" viewBox="0 0 30 30.000001" height="40" preserveAspectRatio="xMidYMid meet" version="1.0"><defs><clipPath id="f6a5f0c212"><path d="M 1.046875 0.5625 L 28.628906 0.5625 L 28.628906 28.144531 L 1.046875 28.144531 Z M 1.046875 0.5625 " clip-rule="nonzero"/></clipPath></defs><g clip-path="url(#f6a5f0c212)"><path fill="#38b6ff" d="M 28.636719 14.359375 C 28.636719 15.265625 28.550781 16.164062 28.371094 17.050781 C 28.195312 17.941406 27.933594 18.800781 27.585938 19.640625 C 27.242188 20.476562 26.816406 21.269531 26.3125 22.023438 C 25.808594 22.777344 25.238281 23.472656 24.597656 24.113281 C 23.957031 24.753906 23.261719 25.328125 22.507812 25.828125 C 21.753906 26.332031 20.960938 26.757812 20.125 27.105469 C 19.285156 27.449219 18.425781 27.710938 17.535156 27.890625 C 16.648438 28.066406 15.75 28.152344 14.84375 28.152344 C 13.9375 28.152344 13.042969 28.066406 12.152344 27.890625 C 11.265625 27.710938 10.402344 27.449219 9.566406 27.105469 C 8.730469 26.757812 7.933594 26.332031 7.183594 25.828125 C 6.429688 25.328125 5.730469 24.753906 5.089844 24.113281 C 4.449219 23.472656 3.878906 22.777344 3.375 22.023438 C 2.871094 21.269531 2.449219 20.476562 2.101562 19.640625 C 1.753906 18.800781 1.492188 17.941406 1.316406 17.050781 C 1.140625 16.164062 1.050781 15.265625 1.050781 14.359375 C 1.050781 13.457031 1.140625 12.558594 1.316406 11.667969 C 1.492188 10.78125 1.753906 9.917969 2.101562 9.082031 C 2.449219 8.246094 2.871094 7.449219 3.375 6.699219 C 3.878906 5.945312 4.449219 5.246094 5.089844 4.609375 C 5.730469 3.96875 6.429688 3.394531 7.183594 2.890625 C 7.933594 2.390625 8.730469 1.964844 9.566406 1.617188 C 10.402344 1.269531 11.265625 1.007812 12.152344 0.832031 C 13.042969 0.65625 13.9375 0.566406 14.84375 0.566406 C 15.75 0.566406 16.648438 0.65625 17.535156 0.832031 C 18.425781 1.007812 19.285156 1.269531 20.125 1.617188 C 20.960938 1.964844 21.753906 2.390625 22.507812 2.890625 C 23.261719 3.394531 23.957031 3.96875 24.597656 4.609375 C 25.238281 5.246094 25.808594 5.945312 26.3125 6.699219 C 26.816406 7.449219 27.242188 8.246094 27.585938 9.082031 C 27.933594 9.917969 28.195312 10.78125 28.371094 11.667969 C 28.550781 12.558594 28.636719 13.457031 28.636719 14.359375 Z M 28.636719 14.359375 " fill-opacity="1" fill-rule="nonzero"/></g><path fill="#000000" d="M 16.035156 20.132812 C 15.261719 20.132812 14.652344 19.984375 14.164062 19.605469 C 14.078125 19.539062 14.066406 19.417969 14.128906 19.332031 C 14.195312 19.246094 14.316406 19.230469 14.402344 19.296875 C 15.171875 19.894531 16.375 19.820312 18.191406 19.496094 C 18.640625 19.414062 18.941406 19.269531 19.082031 19.066406 C 19.179688 18.925781 19.207031 18.753906 19.167969 18.535156 C 19.136719 18.378906 19.070312 18.265625 18.957031 18.191406 C 18.617188 17.960938 17.929688 18.09375 17.429688 18.191406 C 17.257812 18.226562 17.105469 18.253906 16.980469 18.269531 C 16.34375 18.335938 15.40625 18.042969 14.195312 17.398438 C 13.152344 16.875 12.027344 17.070312 11.019531 17.953125 C 10.546875 18.382812 9.253906 18.710938 8.453125 18.710938 C 8.445312 18.710938 8.441406 18.710938 8.4375 18.710938 C 8.328125 18.710938 8.242188 18.621094 8.242188 18.515625 C 8.242188 18.40625 8.332031 18.320312 8.4375 18.320312 C 8.441406 18.320312 8.449219 18.320312 8.453125 18.320312 C 9.238281 18.320312 10.398438 17.992188 10.761719 17.660156 C 11.898438 16.664062 13.179688 16.449219 14.371094 17.050781 C 14.371094 17.050781 14.375 17.054688 14.375 17.054688 C 15.796875 17.8125 16.554688 17.921875 16.9375 17.882812 C 17.046875 17.871094 17.191406 17.84375 17.355469 17.808594 C 17.925781 17.699219 18.703125 17.546875 19.175781 17.867188 C 19.375 18.003906 19.5 18.203125 19.550781 18.464844 C 19.609375 18.785156 19.558594 19.0625 19.402344 19.285156 C 19.199219 19.582031 18.824219 19.777344 18.257812 19.878906 C 17.394531 20.03125 16.660156 20.132812 16.035156 20.132812 Z M 16.035156 20.132812 " fill-opacity="1" fill-rule="evenodd"/><path fill="#000000" d="M 15.113281 22.496094 C 14.636719 22.496094 14.179688 22.433594 13.785156 22.296875 C 12.085938 21.871094 11.316406 21.71875 9.445312 22.261719 C 9.339844 22.292969 9.234375 22.230469 9.203125 22.128906 C 9.171875 22.027344 9.234375 21.917969 9.335938 21.886719 C 11.304688 21.316406 12.15625 21.484375 13.890625 21.921875 C 13.894531 21.925781 13.898438 21.925781 13.90625 21.929688 C 15.015625 22.308594 16.671875 22.078125 17.757812 21.394531 C 17.859375 21.328125 17.960938 21.265625 18.058594 21.203125 C 18.71875 20.792969 19.339844 20.402344 19.933594 19.875 C 19.9375 19.871094 19.941406 19.871094 19.941406 19.867188 C 21.015625 19.015625 22.65625 17.558594 22.773438 17.03125 C 22.804688 16.898438 22.75 16.871094 22.730469 16.859375 C 22.46875 16.714844 21.339844 16.992188 19.511719 18.785156 C 19.4375 18.859375 19.3125 18.859375 19.238281 18.78125 C 19.164062 18.707031 19.164062 18.582031 19.242188 18.507812 C 21.179688 16.605469 22.433594 16.25 22.917969 16.519531 C 23.125 16.632812 23.210938 16.855469 23.152344 17.117188 C 22.972656 17.925781 20.660156 19.792969 20.1875 20.167969 C 19.570312 20.71875 18.9375 21.113281 18.265625 21.53125 C 18.164062 21.597656 18.066406 21.660156 17.964844 21.722656 C 17.171875 22.222656 16.101562 22.496094 15.113281 22.496094 Z M 15.113281 22.496094 " fill-opacity="1" fill-rule="evenodd"/><path fill="#000000" d="M 18.980469 18.171875 C 18.921875 18.171875 18.863281 18.148438 18.828125 18.097656 C 18.761719 18.011719 18.777344 17.890625 18.859375 17.824219 C 20.664062 16.425781 21.820312 15.691406 22.398438 15.582031 C 22.679688 15.53125 22.933594 15.632812 23.050781 15.847656 C 23.117188 15.972656 23.21875 16.3125 22.765625 16.773438 C 22.691406 16.847656 22.566406 16.847656 22.492188 16.773438 C 22.414062 16.699219 22.414062 16.574219 22.488281 16.5 C 22.710938 16.273438 22.746094 16.105469 22.707031 16.03125 C 22.675781 15.972656 22.578125 15.945312 22.472656 15.964844 C 22.121094 16.03125 21.25 16.460938 19.101562 18.132812 C 19.066406 18.160156 19.023438 18.171875 18.980469 18.171875 Z M 18.980469 18.171875 " fill-opacity="1" fill-rule="evenodd"/><path fill="#000000" d="M 18.449219 18.0625 C 18.402344 18.0625 18.355469 18.046875 18.316406 18.011719 C 18.238281 17.9375 18.234375 17.816406 18.308594 17.738281 C 19.683594 16.246094 20.679688 15.542969 21.347656 15.585938 C 21.59375 15.601562 21.800781 15.71875 21.945312 15.921875 C 22.007812 16.007812 21.988281 16.128906 21.898438 16.191406 C 21.8125 16.253906 21.691406 16.234375 21.628906 16.148438 C 21.550781 16.035156 21.453125 15.980469 21.324219 15.972656 C 20.953125 15.949219 20.179688 16.28125 18.59375 18 C 18.554688 18.042969 18.5 18.0625 18.449219 18.0625 Z M 18.449219 18.0625 " fill-opacity="1" fill-rule="evenodd"/><path fill="#000000" d="M 17.707031 18.136719 C 17.671875 18.136719 17.632812 18.125 17.601562 18.105469 C 17.511719 18.046875 17.484375 17.925781 17.542969 17.835938 C 17.738281 17.539062 18.125 16.980469 18.550781 16.53125 C 19.003906 16.054688 19.367188 15.84375 19.664062 15.886719 C 19.820312 15.90625 20.03125 16.007812 20.144531 16.371094 C 20.175781 16.472656 20.121094 16.582031 20.019531 16.613281 C 19.914062 16.648438 19.804688 16.589844 19.773438 16.488281 C 19.730469 16.351562 19.675781 16.28125 19.609375 16.269531 C 19.347656 16.234375 18.664062 16.832031 17.871094 18.046875 C 17.832031 18.105469 17.769531 18.136719 17.707031 18.136719 Z M 17.707031 18.136719 " fill-opacity="1" fill-rule="evenodd"/><path fill="#000000" d="M 6.953125 18.71875 L 8.054688 22.835938 L 9.304688 22.5 L 8.199219 18.386719 Z M 7.914062 23.265625 C 7.828125 23.265625 7.75 23.210938 7.726562 23.121094 L 6.523438 18.632812 C 6.511719 18.582031 6.519531 18.53125 6.542969 18.484375 C 6.570312 18.441406 6.613281 18.40625 6.664062 18.394531 L 8.289062 17.960938 C 8.390625 17.929688 8.5 17.992188 8.527344 18.097656 L 9.730469 22.585938 C 9.742188 22.636719 9.734375 22.691406 9.710938 22.734375 C 9.683594 22.78125 9.640625 22.8125 9.589844 22.824219 L 7.964844 23.261719 C 7.949219 23.265625 7.933594 23.265625 7.914062 23.265625 Z M 7.914062 23.265625 " fill-opacity="1" fill-rule="evenodd"/><path fill="#000000" d="M 15.25 16.558594 C 15.160156 16.558594 15.074219 16.554688 14.964844 16.542969 C 12.863281 16.3125 12.140625 15.246094 11.902344 14.390625 C 11.664062 13.535156 11.804688 12.480469 12.300781 11.417969 C 12.777344 10.398438 13.535156 9.457031 14.429688 8.773438 C 14.515625 8.707031 14.636719 8.722656 14.703125 8.808594 C 14.769531 8.894531 14.753906 9.015625 14.667969 9.082031 C 12.890625 10.441406 11.839844 12.726562 12.277344 14.285156 C 12.570312 15.347656 13.515625 15.992188 15.007812 16.15625 C 15.195312 16.175781 15.300781 16.175781 15.488281 16.15625 C 16.980469 15.992188 17.925781 15.347656 18.222656 14.285156 C 18.65625 12.726562 17.605469 10.441406 15.828125 9.082031 C 15.742188 9.015625 15.726562 8.894531 15.792969 8.808594 C 15.859375 8.722656 15.980469 8.707031 16.066406 8.773438 C 16.960938 9.457031 17.71875 10.398438 18.195312 11.417969 C 18.691406 12.480469 18.832031 13.535156 18.597656 14.390625 C 18.355469 15.246094 17.632812 16.3125 15.53125 16.542969 C 15.421875 16.554688 15.335938 16.558594 15.25 16.558594 Z M 15.25 16.558594 " fill-opacity="1" fill-rule="evenodd"/><path fill="#000000" d="M 14.257812 8.4375 C 14.175781 8.4375 14.113281 8.503906 14.113281 8.585938 C 14.113281 8.667969 14.175781 8.730469 14.257812 8.730469 L 16.238281 8.730469 C 16.320312 8.730469 16.382812 8.667969 16.382812 8.585938 C 16.382812 8.503906 16.320312 8.4375 16.238281 8.4375 Z M 16.238281 9.121094 L 14.257812 9.121094 C 13.964844 9.121094 13.722656 8.878906 13.722656 8.585938 C 13.722656 8.289062 13.964844 8.050781 14.257812 8.050781 L 16.238281 8.050781 C 16.535156 8.050781 16.773438 8.289062 16.773438 8.585938 C 16.773438 8.878906 16.535156 9.121094 16.238281 9.121094 Z M 16.238281 9.121094 " fill-opacity="1" fill-rule="evenodd"/><path fill="#000000" d="M 14.6875 8.4375 C 14.597656 8.4375 14.519531 8.378906 14.496094 8.289062 C 14.429688 8.011719 14.28125 7.726562 14.140625 7.449219 C 13.859375 6.90625 13.539062 6.285156 14.101562 5.878906 C 14.230469 5.78125 14.488281 5.707031 14.6875 5.757812 C 14.808594 5.785156 14.898438 5.859375 14.945312 5.957031 C 15.070312 6.230469 15.167969 6.554688 15.222656 6.867188 C 15.238281 6.972656 15.167969 7.074219 15.0625 7.089844 C 14.957031 7.109375 14.855469 7.039062 14.835938 6.933594 C 14.789062 6.65625 14.703125 6.375 14.597656 6.136719 C 14.542969 6.117188 14.390625 6.148438 14.335938 6.1875 C 14.335938 6.191406 14.332031 6.191406 14.332031 6.195312 C 14.066406 6.382812 14.175781 6.667969 14.484375 7.273438 C 14.640625 7.566406 14.796875 7.875 14.875 8.199219 C 14.902344 8.300781 14.835938 8.40625 14.734375 8.433594 C 14.71875 8.4375 14.703125 8.4375 14.6875 8.4375 Z M 14.6875 8.4375 " fill-opacity="1" fill-rule="evenodd"/><path fill="#000000" d="M 14.765625 6.234375 C 14.738281 6.234375 14.710938 6.226562 14.6875 6.214844 C 14.589844 6.171875 14.546875 6.054688 14.589844 5.957031 C 14.738281 5.632812 14.992188 5.445312 15.265625 5.453125 C 15.539062 5.445312 15.789062 5.632812 15.9375 5.957031 C 15.980469 6.054688 15.9375 6.171875 15.839844 6.214844 C 15.742188 6.261719 15.628906 6.21875 15.582031 6.121094 C 15.503906 5.945312 15.382812 5.839844 15.273438 5.84375 C 15.265625 5.84375 15.261719 5.84375 15.253906 5.84375 C 15.144531 5.835938 15.023438 5.945312 14.945312 6.121094 C 14.910156 6.191406 14.839844 6.234375 14.765625 6.234375 Z M 14.765625 6.234375 " fill-opacity="1" fill-rule="evenodd"/><path fill="#000000" d="M 15.875 8.4375 C 15.859375 8.4375 15.847656 8.4375 15.832031 8.433594 C 15.726562 8.410156 15.660156 8.308594 15.683594 8.203125 C 15.746094 7.90625 15.886719 7.601562 16.019531 7.308594 C 16.289062 6.730469 16.433594 6.363281 16.195312 6.195312 C 16.195312 6.191406 16.191406 6.191406 16.191406 6.1875 C 16.136719 6.148438 15.984375 6.117188 15.929688 6.136719 C 15.820312 6.375 15.75 6.640625 15.71875 6.921875 C 15.707031 7.027344 15.613281 7.105469 15.503906 7.09375 C 15.398438 7.082031 15.320312 6.984375 15.332031 6.878906 C 15.371094 6.550781 15.453125 6.242188 15.582031 5.957031 C 15.628906 5.859375 15.71875 5.785156 15.839844 5.757812 C 16.039062 5.707031 16.296875 5.78125 16.425781 5.878906 C 16.9375 6.25 16.636719 6.898438 16.375 7.472656 C 16.25 7.746094 16.117188 8.03125 16.0625 8.285156 C 16.042969 8.375 15.964844 8.4375 15.875 8.4375 Z M 15.875 8.4375 " fill-opacity="1" fill-rule="evenodd"/><path fill="#000000" d="M 15.203125 14.800781 C 14.75 14.800781 14.332031 14.535156 14.140625 14.128906 C 14.09375 14.03125 14.132812 13.914062 14.230469 13.867188 C 14.328125 13.824219 14.445312 13.863281 14.492188 13.960938 C 14.621094 14.234375 14.898438 14.414062 15.203125 14.414062 C 15.636719 14.414062 15.988281 14.058594 15.988281 13.625 C 15.988281 13.066406 15.703125 12.964844 15.199219 12.835938 C 14.71875 12.707031 14.121094 12.550781 14.121094 11.664062 C 14.121094 11.019531 14.648438 10.492188 15.292969 10.492188 C 15.746094 10.492188 16.164062 10.753906 16.359375 11.164062 C 16.402344 11.261719 16.363281 11.378906 16.265625 11.421875 C 16.167969 11.46875 16.050781 11.425781 16.007812 11.328125 C 15.875 11.054688 15.597656 10.878906 15.292969 10.878906 C 14.863281 10.878906 14.507812 11.230469 14.507812 11.664062 C 14.507812 12.222656 14.792969 12.324219 15.296875 12.457031 C 15.777344 12.582031 16.375 12.742188 16.375 13.625 C 16.375 14.273438 15.847656 14.800781 15.203125 14.800781 Z M 15.203125 14.800781 " fill-opacity="1" fill-rule="evenodd"/><path fill="#000000" d="M 15.25 15.335938 C 15.140625 15.335938 15.054688 15.25 15.054688 15.140625 L 15.054688 10.152344 C 15.054688 10.042969 15.140625 9.957031 15.25 9.957031 C 15.355469 9.957031 15.441406 10.042969 15.441406 10.152344 L 15.441406 15.140625 C 15.441406 15.25 15.355469 15.335938 15.25 15.335938 Z M 15.25 15.335938 " fill-opacity="1" fill-rule="evenodd"/></svg>