<svg xmlns="http://www.w3.org/2000/svg" xmlns:xlink="http://www.w3.org/1999/xlink" width="250" zoomAndPan="magnify" viewBox="0 0 187.5 149.999998" height="200" preserveAspectRatio="xMidYMid meet" version="1.0"><defs><clipPath id="b50f7a0917"><path d="M 26 1.199219 L 140 1.199219 L 140 34 L 26 34 Z M 26 1.199219 " clip-rule="nonzero"/></clipPath><clipPath id="11380ee951"><path d="M 40 132 L 149 132 L 149 148.949219 L 40 148.949219 Z M 40 132 " clip-rule="nonzero"/></clipPath><clipPath id="2629e9ca14"><path d="M 19.75 1.199219 L 53 1.199219 L 53 148.949219 L 19.75 148.949219 Z M 19.75 1.199219 " clip-rule="nonzero"/></clipPath><clipPath id="126fb52c74"><path d="M 93 26 L 167.5 26 L 167.5 110 L 93 110 Z M 93 26 " clip-rule="nonzero"/></clipPath><clipPath id="7079cce847"><path d="M 95 26 L 167.5 26 L 167.5 124 L 95 124 Z M 95 26 " clip-rule="nonzero"/></clipPath></defs><path fill="#e6e4df" d="M 137.304688 10.535156 L 137.304688 146.527344 L 42.796875 146.527344 C 42.34375 146.527344 41.894531 146.484375 41.449219 146.394531 C 41.003906 146.304688 40.570312 146.175781 40.152344 146 C 39.734375 145.828125 39.335938 145.613281 38.957031 145.363281 C 38.578125 145.109375 38.230469 144.824219 37.910156 144.503906 C 37.589844 144.179688 37.300781 143.832031 37.050781 143.453125 C 36.796875 143.078125 36.582031 142.679688 36.410156 142.257812 C 36.234375 141.839844 36.105469 141.40625 36.015625 140.960938 C 35.929688 140.515625 35.882812 140.066406 35.882812 139.613281 L 35.882812 10.535156 C 35.882812 10.078125 35.839844 9.628906 35.75 9.183594 C 35.664062 8.738281 35.53125 8.308594 35.355469 7.886719 C 35.183594 7.46875 34.96875 7.070312 34.71875 6.691406 C 34.464844 6.3125 34.179688 5.964844 33.859375 5.644531 C 33.539062 5.324219 33.1875 5.035156 32.808594 4.785156 C 32.433594 4.53125 32.035156 4.320312 31.613281 4.144531 C 31.195312 3.972656 30.761719 3.839844 30.316406 3.75 C 29.871094 3.664062 29.421875 3.617188 28.96875 3.617188 L 130.386719 3.617188 C 130.84375 3.617188 131.292969 3.664062 131.738281 3.75 C 132.183594 3.839844 132.613281 3.972656 133.035156 4.144531 C 133.453125 4.320312 133.851562 4.53125 134.230469 4.785156 C 134.609375 5.035156 134.957031 5.324219 135.277344 5.644531 C 135.597656 5.964844 135.886719 6.3125 136.136719 6.691406 C 136.390625 7.070312 136.601562 7.46875 136.777344 7.886719 C 136.949219 8.308594 137.082031 8.738281 137.171875 9.183594 C 137.257812 9.628906 137.304688 10.078125 137.304688 10.535156 Z M 137.304688 10.535156 " fill-opacity="1" fill-rule="nonzero"/><path fill="#c7c1b5" d="M 130.386719 3.617188 L 28.96875 3.617188 C 29.421875 3.617188 29.871094 3.664062 30.316406 3.75 C 30.761719 3.839844 31.195312 3.972656 31.613281 4.144531 C 32.035156 4.320312 32.433594 4.53125 32.808594 4.785156 C 33.1875 5.035156 33.539062 5.324219 33.859375 5.644531 C 34.179688 5.964844 34.464844 6.3125 34.71875 6.691406 C 34.96875 7.070312 35.183594 7.46875 35.355469 7.886719 C 35.53125 8.308594 35.664062 8.738281 35.75 9.183594 C 35.839844 9.628906 35.882812 10.078125 35.882812 10.535156 L 35.882812 139.613281 C 35.882812 140.066406 35.929688 140.515625 36.015625 140.960938 C 36.105469 141.40625 36.234375 141.839844 36.410156 142.257812 C 36.582031 142.679688 36.796875 143.078125 37.050781 143.453125 C 37.300781 143.832031 37.589844 144.179688 37.910156 144.503906 C 38.230469 144.824219 38.578125 145.109375 38.957031 145.363281 C 39.335938 145.613281 39.734375 145.828125 40.152344 146 C 40.570312 146.175781 41.003906 146.304688 41.449219 146.394531 C 41.894531 146.484375 42.34375 146.527344 42.796875 146.527344 L 137.304688 146.527344 L 137.304688 10.535156 C 137.304688 10.078125 137.257812 9.628906 137.171875 9.183594 C 137.082031 8.738281 136.949219 8.308594 136.777344 7.886719 C 136.601562 7.46875 136.390625 7.070312 136.136719 6.691406 C 135.886719 6.3125 135.597656 5.964844 135.277344 5.644531 C 134.957031 5.324219 134.609375 5.035156 134.230469 4.785156 C 133.851562 4.53125 133.453125 4.320312 133.035156 4.144531 C 132.613281 3.972656 132.183594 3.839844 131.738281 3.75 C 131.292969 3.664062 130.84375 3.617188 130.386719 3.617188 Z M 132.691406 141.917969 L 42.796875 141.917969 C 42.492188 141.917969 42.199219 141.859375 41.917969 141.742188 C 41.632812 141.625 41.386719 141.460938 41.167969 141.242188 C 40.953125 141.027344 40.785156 140.777344 40.667969 140.496094 C 40.550781 140.210938 40.492188 139.917969 40.492188 139.613281 L 40.492188 10.535156 C 40.5 9.757812 40.421875 8.988281 40.261719 8.226562 L 130.386719 8.226562 C 130.695312 8.226562 130.988281 8.285156 131.269531 8.402344 C 131.554688 8.519531 131.800781 8.6875 132.019531 8.902344 C 132.234375 9.121094 132.402344 9.367188 132.519531 9.652344 C 132.636719 9.933594 132.691406 10.226562 132.691406 10.535156 Z M 132.691406 141.917969 " fill-opacity="1" fill-rule="nonzero"/><path fill="#5980ee" d="M 100.421875 107.34375 C 97.488281 99.144531 95.949219 90.695312 95.8125 81.988281 C 95.8125 63.546875 105.035156 56.632812 105.035156 56.632812 L 114.253906 56.632812 L 114.253906 49.71875 C 118.863281 28.972656 164.964844 28.972656 164.964844 28.972656 C 164.964844 28.972656 164.964844 47.414062 148.828125 56.632812 C 148.828125 56.632812 135 61.242188 135 75.074219 C 135 86.597656 125.777344 102.734375 100.421875 107.34375 Z M 100.421875 107.34375 " fill-opacity="1" fill-rule="nonzero"/><path fill="#4361b1" d="M 114.253906 49.71875 L 114.253906 56.632812 L 105.035156 56.632812 C 105.035156 56.632812 95.8125 63.546875 95.8125 81.988281 C 95.949219 90.695312 97.488281 99.144531 100.421875 107.34375 C 125.777344 102.734375 135 86.597656 135 75.074219 C 135 61.242188 148.828125 56.632812 148.828125 56.632812 C 164.964844 47.414062 164.964844 28.972656 164.964844 28.972656 C 164.964844 28.972656 118.863281 28.972656 114.253906 49.71875 Z M 118.863281 50.273438 C 120.753906 43.265625 130.089844 39.070312 140.136719 36.625 C 132.140625 42.136719 125.050781 48.636719 118.863281 56.125 Z M 106.855469 61.242188 L 114.253906 61.242188 C 114.492188 61.234375 114.730469 61.210938 114.96875 61.175781 C 113.125 63.710938 111.347656 66.40625 109.644531 69.265625 L 109.644531 68.160156 C 109.644531 67.859375 109.613281 67.558594 109.554688 67.265625 C 109.496094 66.96875 109.410156 66.683594 109.296875 66.40625 C 109.183594 66.125 109.042969 65.863281 108.875 65.613281 C 108.710938 65.359375 108.519531 65.128906 108.308594 64.914062 C 108.097656 64.699219 107.867188 64.507812 107.617188 64.339844 C 107.371094 64.171875 107.105469 64.03125 106.828125 63.914062 C 106.550781 63.796875 106.265625 63.707031 105.972656 63.644531 C 105.679688 63.582031 105.378906 63.550781 105.078125 63.546875 C 105.609375 62.734375 106.203125 61.964844 106.855469 61.242188 Z M 100.421875 81.988281 C 100.40625 79.015625 100.699219 76.070312 101.300781 73.160156 C 101.730469 73.761719 102.277344 74.230469 102.933594 74.566406 C 103.59375 74.90625 104.292969 75.074219 105.035156 75.074219 C 105.5625 75.0625 106.078125 74.972656 106.578125 74.796875 C 104.347656 79.136719 102.417969 83.609375 100.792969 88.210938 C 100.445312 84.546875 100.421875 82.035156 100.421875 81.988281 Z M 146.867188 52.4375 C 143.988281 53.542969 130.386719 59.582031 130.386719 75.074219 C 130.386719 82.449219 125.15625 95.335938 106.53125 101.097656 C 107.707031 96.367188 109.207031 91.742188 111.027344 87.21875 C 112.515625 86.199219 114.125 85.4375 115.859375 84.9375 C 117.59375 84.433594 119.363281 84.222656 121.167969 84.292969 C 121.472656 84.292969 121.769531 84.261719 122.066406 84.203125 C 122.363281 84.144531 122.652344 84.058594 122.933594 83.941406 C 123.210938 83.828125 123.476562 83.683594 123.730469 83.515625 C 123.980469 83.347656 124.214844 83.15625 124.429688 82.941406 C 124.640625 82.730469 124.832031 82.496094 125 82.246094 C 125.167969 81.992188 125.3125 81.726562 125.425781 81.449219 C 125.542969 81.167969 125.628906 80.878906 125.691406 80.582031 C 125.75 80.285156 125.777344 79.984375 125.777344 79.683594 C 125.777344 79.378906 125.75 79.082031 125.691406 78.785156 C 125.628906 78.488281 125.542969 78.199219 125.425781 77.917969 C 125.3125 77.640625 125.167969 77.375 125 77.121094 C 124.832031 76.871094 124.640625 76.636719 124.429688 76.421875 C 124.214844 76.210938 123.980469 76.019531 123.730469 75.851562 C 123.476562 75.683594 123.210938 75.539062 122.933594 75.425781 C 122.652344 75.308594 122.363281 75.222656 122.066406 75.160156 C 121.769531 75.101562 121.472656 75.074219 121.167969 75.074219 C 119.675781 75.074219 118.195312 75.191406 116.71875 75.417969 C 119.148438 71.167969 121.886719 67.125 124.933594 63.292969 C 127.980469 59.460938 131.304688 55.882812 134.902344 52.5625 C 138.5 49.242188 142.328125 46.214844 146.390625 43.480469 C 150.453125 40.746094 154.699219 38.339844 159.132812 36.257812 C 158.675781 37.933594 158.0625 39.554688 157.292969 41.113281 C 156.527344 42.675781 155.617188 44.148438 154.566406 45.535156 C 153.515625 46.921875 152.34375 48.195312 151.050781 49.355469 C 149.753906 50.515625 148.359375 51.542969 146.867188 52.4375 Z M 146.867188 52.4375 " fill-opacity="1" fill-rule="nonzero"/><path fill="#b2123b" d="M 45.105469 12.839844 L 114.253906 12.839844 L 114.253906 40.5 L 45.105469 40.5 Z M 45.105469 12.839844 " fill-opacity="1" fill-rule="nonzero"/><path fill="#ee194f" d="M 109.644531 17.449219 L 109.644531 35.886719 L 49.714844 35.886719 L 49.714844 17.449219 Z M 109.644531 17.449219 " fill-opacity="1" fill-rule="nonzero"/><path fill="#b2123b" d="M 68.152344 22.058594 C 67.699219 22.058594 67.25 22.101562 66.804688 22.191406 C 66.359375 22.28125 65.925781 22.410156 65.507812 22.585938 C 65.085938 22.757812 64.6875 22.972656 64.3125 23.222656 C 63.933594 23.476562 63.585938 23.761719 63.265625 24.082031 C 62.941406 24.40625 62.65625 24.753906 62.402344 25.132812 C 62.152344 25.507812 61.9375 25.90625 61.765625 26.328125 C 61.589844 26.746094 61.460938 27.179688 61.371094 27.625 C 61.28125 28.070312 61.238281 28.519531 61.238281 28.972656 C 61.238281 29.425781 61.28125 29.878906 61.371094 30.324219 C 61.460938 30.769531 61.589844 31.199219 61.765625 31.621094 C 61.9375 32.039062 62.152344 32.4375 62.402344 32.816406 C 62.65625 33.191406 62.941406 33.542969 63.265625 33.863281 C 63.585938 34.183594 63.933594 34.46875 64.3125 34.722656 C 64.6875 34.976562 65.085938 35.1875 65.507812 35.363281 C 65.925781 35.535156 66.359375 35.667969 66.804688 35.753906 C 67.25 35.84375 67.699219 35.886719 68.152344 35.886719 C 68.609375 35.886719 69.058594 35.84375 69.503906 35.753906 C 69.949219 35.667969 70.378906 35.535156 70.800781 35.363281 C 71.21875 35.1875 71.617188 34.976562 71.996094 34.722656 C 72.371094 34.46875 72.722656 34.183594 73.042969 33.863281 C 73.363281 33.542969 73.652344 33.191406 73.902344 32.816406 C 74.15625 32.4375 74.367188 32.039062 74.542969 31.621094 C 74.714844 31.199219 74.847656 30.769531 74.9375 30.324219 C 75.023438 29.878906 75.070312 29.425781 75.070312 28.972656 C 75.070312 28.519531 75.023438 28.070312 74.9375 27.625 C 74.847656 27.179688 74.714844 26.746094 74.542969 26.328125 C 74.367188 25.90625 74.15625 25.507812 73.902344 25.132812 C 73.652344 24.753906 73.363281 24.40625 73.042969 24.082031 C 72.722656 23.761719 72.371094 23.476562 71.996094 23.222656 C 71.617188 22.972656 71.21875 22.757812 70.800781 22.585938 C 70.378906 22.410156 69.949219 22.28125 69.503906 22.191406 C 69.058594 22.101562 68.609375 22.058594 68.152344 22.058594 Z M 68.152344 31.277344 C 67.847656 31.277344 67.554688 31.21875 67.273438 31.101562 C 66.988281 30.984375 66.738281 30.820312 66.523438 30.601562 C 66.308594 30.386719 66.140625 30.136719 66.023438 29.855469 C 65.90625 29.574219 65.847656 29.277344 65.847656 28.972656 C 65.847656 28.667969 65.90625 28.375 66.023438 28.089844 C 66.140625 27.808594 66.308594 27.558594 66.523438 27.34375 C 66.738281 27.128906 66.988281 26.960938 67.273438 26.84375 C 67.554688 26.726562 67.847656 26.667969 68.152344 26.667969 C 68.460938 26.667969 68.753906 26.726562 69.035156 26.84375 C 69.316406 26.960938 69.566406 27.128906 69.785156 27.34375 C 70 27.558594 70.167969 27.808594 70.28125 28.089844 C 70.398438 28.375 70.457031 28.667969 70.457031 28.972656 C 70.457031 29.277344 70.398438 29.574219 70.28125 29.855469 C 70.167969 30.136719 70 30.386719 69.785156 30.601562 C 69.566406 30.820312 69.316406 30.984375 69.035156 31.101562 C 68.753906 31.21875 68.460938 31.277344 68.152344 31.277344 Z M 68.152344 31.277344 " fill-opacity="1" fill-rule="nonzero"/><path fill="#b2123b" d="M 58.933594 31.277344 C 58.628906 31.277344 58.332031 31.21875 58.050781 31.101562 C 57.769531 30.984375 57.519531 30.820312 57.304688 30.601562 C 57.085938 30.386719 56.921875 30.136719 56.804688 29.855469 C 56.6875 29.574219 56.628906 29.277344 56.628906 28.972656 L 56.628906 24.363281 C 56.628906 24.058594 56.570312 23.765625 56.453125 23.480469 C 56.335938 23.199219 56.167969 22.949219 55.953125 22.734375 C 55.738281 22.515625 55.488281 22.351562 55.207031 22.234375 C 54.921875 22.117188 54.628906 22.058594 54.324219 22.058594 C 54.019531 22.058594 53.722656 22.117188 53.441406 22.234375 C 53.160156 22.351562 52.910156 22.515625 52.695312 22.734375 C 52.476562 22.949219 52.3125 23.199219 52.195312 23.480469 C 52.078125 23.765625 52.019531 24.058594 52.019531 24.363281 L 52.019531 28.972656 C 52.019531 29.425781 52.0625 29.878906 52.152344 30.324219 C 52.238281 30.769531 52.371094 31.199219 52.546875 31.621094 C 52.71875 32.039062 52.933594 32.4375 53.183594 32.816406 C 53.4375 33.191406 53.722656 33.542969 54.042969 33.863281 C 54.363281 34.183594 54.714844 34.46875 55.09375 34.722656 C 55.46875 34.976562 55.867188 35.1875 56.289062 35.363281 C 56.707031 35.535156 57.140625 35.667969 57.585938 35.753906 C 58.03125 35.84375 58.480469 35.886719 58.933594 35.886719 C 59.238281 35.886719 59.535156 35.828125 59.816406 35.710938 C 60.097656 35.597656 60.347656 35.429688 60.5625 35.214844 C 60.78125 34.996094 60.945312 34.746094 61.0625 34.464844 C 61.179688 34.183594 61.238281 33.890625 61.238281 33.582031 C 61.238281 33.277344 61.179688 32.984375 61.0625 32.703125 C 60.945312 32.417969 60.78125 32.167969 60.5625 31.953125 C 60.347656 31.738281 60.097656 31.570312 59.816406 31.453125 C 59.535156 31.335938 59.238281 31.277344 58.933594 31.277344 Z M 58.933594 31.277344 " fill-opacity="1" fill-rule="nonzero"/><path fill="#b2123b" d="M 84.289062 22.058594 C 83.835938 22.058594 83.386719 22.101562 82.941406 22.191406 C 82.496094 22.28125 82.0625 22.410156 81.640625 22.585938 C 81.222656 22.757812 80.824219 22.972656 80.445312 23.222656 C 80.070312 23.476562 79.71875 23.761719 79.398438 24.082031 C 79.078125 24.40625 78.792969 24.753906 78.539062 25.132812 C 78.285156 25.507812 78.074219 25.90625 77.898438 26.328125 C 77.726562 26.746094 77.59375 27.179688 77.507812 27.625 C 77.417969 28.070312 77.375 28.519531 77.375 28.972656 L 77.375 33.582031 C 77.375 33.890625 77.433594 34.183594 77.550781 34.464844 C 77.664062 34.746094 77.832031 34.996094 78.046875 35.214844 C 78.265625 35.429688 78.515625 35.597656 78.796875 35.710938 C 79.078125 35.828125 79.371094 35.886719 79.679688 35.886719 C 79.984375 35.886719 80.277344 35.828125 80.5625 35.710938 C 80.84375 35.597656 81.09375 35.429688 81.308594 35.214844 C 81.523438 34.996094 81.691406 34.746094 81.808594 34.464844 C 81.925781 34.183594 81.984375 33.890625 81.984375 33.582031 L 86.59375 33.582031 C 86.59375 33.890625 86.652344 34.183594 86.769531 34.464844 C 86.886719 34.746094 87.050781 34.996094 87.269531 35.214844 C 87.484375 35.429688 87.734375 35.597656 88.015625 35.710938 C 88.296875 35.828125 88.59375 35.886719 88.898438 35.886719 C 89.203125 35.886719 89.5 35.828125 89.78125 35.710938 C 90.0625 35.597656 90.3125 35.429688 90.527344 35.214844 C 90.746094 34.996094 90.910156 34.746094 91.027344 34.464844 C 91.144531 34.183594 91.203125 33.890625 91.203125 33.582031 L 91.203125 28.972656 C 91.203125 28.519531 91.160156 28.070312 91.070312 27.625 C 90.980469 27.179688 90.851562 26.746094 90.675781 26.328125 C 90.503906 25.90625 90.289062 25.507812 90.039062 25.132812 C 89.785156 24.753906 89.5 24.40625 89.179688 24.082031 C 88.855469 23.761719 88.507812 23.476562 88.128906 23.222656 C 87.753906 22.972656 87.355469 22.757812 86.933594 22.585938 C 86.515625 22.410156 86.082031 22.28125 85.636719 22.191406 C 85.191406 22.101562 84.742188 22.058594 84.289062 22.058594 Z M 81.984375 28.972656 C 81.984375 28.667969 82.042969 28.375 82.160156 28.089844 C 82.277344 27.808594 82.441406 27.558594 82.660156 27.34375 C 82.875 27.128906 83.125 26.960938 83.40625 26.84375 C 83.6875 26.726562 83.984375 26.667969 84.289062 26.667969 C 84.59375 26.667969 84.886719 26.726562 85.171875 26.84375 C 85.453125 26.960938 85.703125 27.128906 85.917969 27.34375 C 86.132812 27.558594 86.300781 27.808594 86.417969 28.089844 C 86.535156 28.375 86.59375 28.667969 86.59375 28.972656 Z M 81.984375 28.972656 " fill-opacity="1" fill-rule="nonzero"/><path fill="#b2123b" d="M 105.035156 22.058594 C 104.726562 22.058594 104.433594 22.117188 104.152344 22.234375 C 103.867188 22.351562 103.621094 22.515625 103.402344 22.734375 C 103.1875 22.949219 103.019531 23.199219 102.902344 23.480469 C 102.785156 23.765625 102.726562 24.058594 102.726562 24.363281 L 102.726562 28.019531 L 97.441406 22.734375 C 97.113281 22.402344 96.71875 22.195312 96.261719 22.101562 C 95.804688 22.011719 95.363281 22.054688 94.929688 22.234375 C 94.5 22.414062 94.15625 22.695312 93.898438 23.082031 C 93.636719 23.46875 93.507812 23.898438 93.507812 24.363281 L 93.507812 33.582031 C 93.507812 33.890625 93.566406 34.183594 93.683594 34.464844 C 93.800781 34.746094 93.96875 34.996094 94.183594 35.214844 C 94.398438 35.429688 94.648438 35.597656 94.929688 35.710938 C 95.214844 35.828125 95.507812 35.886719 95.8125 35.886719 C 96.117188 35.886719 96.414062 35.828125 96.695312 35.710938 C 96.976562 35.597656 97.226562 35.429688 97.441406 35.214844 C 97.660156 34.996094 97.824219 34.746094 97.941406 34.464844 C 98.058594 34.183594 98.117188 33.890625 98.117188 33.582031 L 98.117188 29.925781 L 103.402344 35.214844 C 103.734375 35.542969 104.125 35.753906 104.582031 35.84375 C 105.042969 35.933594 105.484375 35.890625 105.914062 35.710938 C 106.347656 35.535156 106.691406 35.25 106.949219 34.863281 C 107.207031 34.476562 107.339844 34.050781 107.339844 33.582031 L 107.339844 24.363281 C 107.339844 24.058594 107.28125 23.765625 107.164062 23.480469 C 107.046875 23.199219 106.878906 22.949219 106.664062 22.734375 C 106.445312 22.515625 106.199219 22.351562 105.914062 22.234375 C 105.632812 22.117188 105.339844 22.058594 105.035156 22.058594 Z M 105.035156 22.058594 " fill-opacity="1" fill-rule="nonzero"/><path fill="#c7c1b5" d="M 84.605469 130.394531 C 83.796875 130.410156 83.023438 130.246094 82.289062 129.902344 C 81.90625 129.714844 81.558594 129.476562 81.246094 129.183594 C 80.9375 128.894531 80.675781 128.5625 80.464844 128.191406 C 80.25 127.824219 80.097656 127.429688 80.003906 127.015625 C 79.910156 126.597656 79.882812 126.179688 79.914062 125.753906 C 80.09375 124.46875 80.695312 123.425781 81.710938 122.625 C 81.882812 122.472656 82.042969 122.308594 82.1875 122.128906 C 82.171875 121.828125 82.046875 121.578125 81.820312 121.378906 C 81.097656 121.117188 80.367188 121.089844 79.625 121.296875 C 77.359375 121.683594 75.183594 122.355469 73.09375 123.3125 C 71.003906 124.265625 69.074219 125.476562 67.300781 126.933594 C 67.0625 127.128906 66.796875 127.269531 66.503906 127.355469 C 66.210938 127.441406 65.914062 127.46875 65.609375 127.4375 C 65.304688 127.40625 65.019531 127.316406 64.75 127.171875 C 64.480469 127.027344 64.25 126.835938 64.058594 126.597656 C 63.863281 126.359375 63.726562 126.09375 63.636719 125.800781 C 63.550781 125.507812 63.523438 125.210938 63.554688 124.90625 C 63.585938 124.601562 63.675781 124.3125 63.820312 124.046875 C 63.96875 123.777344 64.160156 123.546875 64.394531 123.355469 C 66.484375 121.640625 68.753906 120.222656 71.210938 119.105469 C 73.664062 117.984375 76.222656 117.199219 78.886719 116.746094 C 79.796875 116.53125 80.714844 116.488281 81.640625 116.613281 C 82.566406 116.738281 83.441406 117.023438 84.261719 117.46875 C 84.8125 117.820312 85.289062 118.253906 85.683594 118.777344 C 86.074219 119.300781 86.363281 119.875 86.546875 120.503906 C 86.734375 121.132812 86.800781 121.773438 86.75 122.425781 C 86.699219 123.078125 86.535156 123.703125 86.257812 124.292969 C 85.953125 124.84375 85.566406 125.332031 85.105469 125.761719 L 85.152344 125.761719 C 89.335938 125.433594 93.367188 124.476562 97.25 122.886719 C 97.535156 122.765625 97.832031 122.703125 98.144531 122.699219 C 98.453125 122.699219 98.75 122.753906 99.035156 122.871094 C 99.324219 122.988281 99.574219 123.15625 99.792969 123.378906 C 100.011719 123.597656 100.179688 123.847656 100.296875 124.136719 C 100.414062 124.421875 100.472656 124.722656 100.46875 125.03125 C 100.464844 125.339844 100.402344 125.636719 100.277344 125.921875 C 100.15625 126.207031 99.980469 126.453125 99.757812 126.667969 C 99.535156 126.882812 99.277344 127.046875 98.988281 127.15625 C 94.660156 128.925781 90.164062 129.992188 85.503906 130.355469 C 85.210938 130.375 84.914062 130.394531 84.605469 130.394531 Z M 84.605469 130.394531 " fill-opacity="1" fill-rule="nonzero"/><path fill="#c7c1b5" d="M 91.203125 56.632812 L 45.105469 56.632812 C 44.796875 56.632812 44.503906 56.574219 44.222656 56.457031 C 43.9375 56.339844 43.691406 56.175781 43.472656 55.957031 C 43.257812 55.742188 43.089844 55.492188 42.972656 55.210938 C 42.855469 54.929688 42.796875 54.632812 42.796875 54.328125 C 42.796875 54.023438 42.855469 53.730469 42.972656 53.445312 C 43.089844 53.164062 43.257812 52.914062 43.472656 52.699219 C 43.691406 52.480469 43.9375 52.316406 44.222656 52.199219 C 44.503906 52.082031 44.796875 52.023438 45.105469 52.023438 L 91.203125 52.023438 C 91.507812 52.023438 91.804688 52.082031 92.085938 52.199219 C 92.367188 52.316406 92.617188 52.480469 92.832031 52.699219 C 93.050781 52.914062 93.214844 53.164062 93.332031 53.445312 C 93.449219 53.730469 93.507812 54.023438 93.507812 54.328125 C 93.507812 54.632812 93.449219 54.929688 93.332031 55.210938 C 93.214844 55.492188 93.050781 55.742188 92.832031 55.957031 C 92.617188 56.175781 92.367188 56.339844 92.085938 56.457031 C 91.804688 56.574219 91.507812 56.632812 91.203125 56.632812 Z M 91.203125 56.632812 " fill-opacity="1" fill-rule="nonzero"/><path fill="#c7c1b5" d="M 86.59375 65.851562 L 45.105469 65.851562 C 44.796875 65.851562 44.503906 65.792969 44.222656 65.679688 C 43.9375 65.5625 43.691406 65.394531 43.472656 65.179688 C 43.257812 64.960938 43.089844 64.710938 42.972656 64.429688 C 42.855469 64.148438 42.796875 63.855469 42.796875 63.546875 C 42.796875 63.242188 42.855469 62.949219 42.972656 62.667969 C 43.089844 62.382812 43.257812 62.132812 43.472656 61.917969 C 43.691406 61.703125 43.9375 61.535156 44.222656 61.417969 C 44.503906 61.300781 44.796875 61.242188 45.105469 61.242188 L 86.59375 61.242188 C 86.898438 61.242188 87.191406 61.300781 87.476562 61.417969 C 87.757812 61.535156 88.007812 61.703125 88.222656 61.917969 C 88.441406 62.132812 88.605469 62.382812 88.722656 62.667969 C 88.839844 62.949219 88.898438 63.242188 88.898438 63.546875 C 88.898438 63.855469 88.839844 64.148438 88.722656 64.429688 C 88.605469 64.710938 88.441406 64.960938 88.222656 65.179688 C 88.007812 65.394531 87.757812 65.5625 87.476562 65.679688 C 87.191406 65.792969 86.898438 65.851562 86.59375 65.851562 Z M 86.59375 65.851562 " fill-opacity="1" fill-rule="nonzero"/><path fill="#c7c1b5" d="M 81.984375 75.074219 L 45.105469 75.074219 C 44.796875 75.074219 44.503906 75.015625 44.222656 74.898438 C 43.9375 74.78125 43.691406 74.613281 43.472656 74.398438 C 43.257812 74.183594 43.089844 73.933594 42.972656 73.648438 C 42.855469 73.367188 42.796875 73.074219 42.796875 72.769531 C 42.796875 72.460938 42.855469 72.167969 42.972656 71.886719 C 43.089844 71.605469 43.257812 71.355469 43.472656 71.136719 C 43.691406 70.921875 43.9375 70.753906 44.222656 70.640625 C 44.503906 70.523438 44.796875 70.464844 45.105469 70.464844 L 81.984375 70.464844 C 82.289062 70.464844 82.582031 70.523438 82.867188 70.640625 C 83.148438 70.753906 83.398438 70.921875 83.613281 71.136719 C 83.828125 71.355469 83.996094 71.605469 84.113281 71.886719 C 84.230469 72.167969 84.289062 72.460938 84.289062 72.769531 C 84.289062 73.074219 84.230469 73.367188 84.113281 73.648438 C 83.996094 73.933594 83.828125 74.183594 83.613281 74.398438 C 83.398438 74.613281 83.148438 74.78125 82.867188 74.898438 C 82.582031 75.015625 82.289062 75.074219 81.984375 75.074219 Z M 81.984375 75.074219 " fill-opacity="1" fill-rule="nonzero"/><path fill="#c7c1b5" d="M 86.59375 98.125 L 54.324219 98.125 C 54.019531 98.125 53.722656 98.066406 53.441406 97.949219 C 53.160156 97.832031 52.910156 97.664062 52.695312 97.449219 C 52.476562 97.230469 52.3125 96.984375 52.195312 96.699219 C 52.078125 96.417969 52.019531 96.125 52.019531 95.816406 C 52.019531 95.511719 52.078125 95.21875 52.195312 94.9375 C 52.3125 94.652344 52.476562 94.40625 52.695312 94.1875 C 52.910156 93.972656 53.160156 93.804688 53.441406 93.6875 C 53.722656 93.570312 54.019531 93.511719 54.324219 93.511719 L 86.59375 93.511719 C 86.898438 93.511719 87.191406 93.570312 87.476562 93.6875 C 87.757812 93.804688 88.007812 93.972656 88.222656 94.1875 C 88.441406 94.40625 88.605469 94.652344 88.722656 94.9375 C 88.839844 95.21875 88.898438 95.511719 88.898438 95.816406 C 88.898438 96.125 88.839844 96.417969 88.722656 96.699219 C 88.605469 96.984375 88.441406 97.230469 88.222656 97.449219 C 88.007812 97.664062 87.757812 97.832031 87.476562 97.949219 C 87.191406 98.066406 86.898438 98.125 86.59375 98.125 Z M 86.59375 98.125 " fill-opacity="1" fill-rule="nonzero"/><path fill="#283640" d="M 146.523438 135.003906 L 146.523438 139.613281 C 146.523438 140.066406 146.480469 140.515625 146.390625 140.960938 C 146.300781 141.40625 146.171875 141.839844 145.996094 142.257812 C 145.824219 142.679688 145.609375 143.078125 145.359375 143.453125 C 145.105469 143.832031 144.820312 144.179688 144.496094 144.503906 C 144.175781 144.824219 143.828125 145.109375 143.449219 145.363281 C 143.074219 145.613281 142.675781 145.828125 142.253906 146 C 141.835938 146.175781 141.402344 146.304688 140.957031 146.394531 C 140.511719 146.484375 140.0625 146.527344 139.609375 146.527344 L 42.796875 146.527344 C 43.253906 146.527344 43.703125 146.484375 44.148438 146.394531 C 44.59375 146.304688 45.027344 146.175781 45.445312 146 C 45.863281 145.828125 46.261719 145.613281 46.640625 145.363281 C 47.019531 145.109375 47.367188 144.824219 47.6875 144.503906 C 48.007812 144.179688 48.296875 143.832031 48.546875 143.453125 C 48.800781 143.078125 49.011719 142.679688 49.1875 142.257812 C 49.359375 141.839844 49.492188 141.40625 49.582031 140.960938 C 49.667969 140.515625 49.714844 140.066406 49.714844 139.613281 L 49.714844 135.003906 Z M 146.523438 135.003906 " fill-opacity="1" fill-rule="nonzero"/><path fill="#202d35" d="M 146.523438 139.613281 C 146.523438 140.066406 146.480469 140.515625 146.390625 140.960938 C 146.300781 141.40625 146.171875 141.839844 145.996094 142.257812 C 145.824219 142.679688 145.609375 143.078125 145.359375 143.453125 C 145.105469 143.832031 144.820312 144.179688 144.496094 144.503906 C 144.175781 144.824219 143.828125 145.109375 143.449219 145.363281 C 143.074219 145.613281 142.675781 145.828125 142.253906 146 C 141.835938 146.175781 141.402344 146.304688 140.957031 146.394531 C 140.511719 146.484375 140.0625 146.527344 139.609375 146.527344 L 42.796875 146.527344 C 43.253906 146.527344 43.703125 146.484375 44.148438 146.394531 C 44.59375 146.304688 45.027344 146.175781 45.445312 146 C 45.863281 145.828125 46.261719 145.613281 46.640625 145.363281 C 47.019531 145.109375 47.367188 144.824219 47.6875 144.503906 C 48.007812 144.179688 48.296875 143.832031 48.546875 143.453125 C 48.800781 143.078125 49.011719 142.679688 49.1875 142.257812 C 49.359375 141.839844 49.492188 141.40625 49.582031 140.960938 C 49.667969 140.515625 49.714844 140.066406 49.714844 139.613281 Z M 146.523438 139.613281 " fill-opacity="1" fill-rule="nonzero"/><path fill="#283640" d="M 35.882812 10.535156 L 35.882812 15.144531 L 22.054688 15.144531 L 22.054688 10.535156 C 22.054688 10.078125 22.097656 9.628906 22.1875 9.183594 C 22.273438 8.738281 22.40625 8.308594 22.582031 7.886719 C 22.753906 7.46875 22.96875 7.070312 23.21875 6.691406 C 23.472656 6.3125 23.757812 5.964844 24.078125 5.644531 C 24.398438 5.324219 24.75 5.035156 25.128906 4.785156 C 25.503906 4.53125 25.902344 4.320312 26.324219 4.144531 C 26.742188 3.972656 27.175781 3.839844 27.621094 3.75 C 28.066406 3.664062 28.515625 3.617188 28.96875 3.617188 C 29.421875 3.617188 29.871094 3.664062 30.316406 3.75 C 30.761719 3.839844 31.195312 3.972656 31.613281 4.144531 C 32.035156 4.320312 32.433594 4.53125 32.808594 4.785156 C 33.1875 5.035156 33.539062 5.324219 33.859375 5.644531 C 34.179688 5.964844 34.464844 6.3125 34.71875 6.691406 C 34.96875 7.070312 35.183594 7.46875 35.355469 7.886719 C 35.53125 8.308594 35.664062 8.738281 35.75 9.183594 C 35.839844 9.628906 35.882812 10.078125 35.882812 10.535156 Z M 35.882812 10.535156 " fill-opacity="1" fill-rule="nonzero"/><path fill="#202d35" d="M 35.882812 10.535156 L 35.882812 15.144531 L 28.96875 15.144531 L 28.96875 3.617188 C 29.421875 3.617188 29.871094 3.664062 30.316406 3.75 C 30.761719 3.839844 31.195312 3.972656 31.613281 4.144531 C 32.035156 4.320312 32.433594 4.53125 32.808594 4.785156 C 33.1875 5.035156 33.539062 5.324219 33.859375 5.644531 C 34.179688 5.964844 34.464844 6.3125 34.71875 6.691406 C 34.96875 7.070312 35.183594 7.46875 35.355469 7.886719 C 35.53125 8.308594 35.664062 8.738281 35.75 9.183594 C 35.839844 9.628906 35.882812 10.078125 35.882812 10.535156 Z M 35.882812 10.535156 " fill-opacity="1" fill-rule="nonzero"/><path fill="#222325" d="M 84.605469 128.089844 C 83.796875 128.105469 83.023438 127.941406 82.289062 127.597656 C 81.90625 127.410156 81.558594 127.171875 81.246094 126.878906 C 80.9375 126.589844 80.675781 126.257812 80.464844 125.886719 C 80.25 125.519531 80.097656 125.125 80.007812 124.710938 C 79.914062 124.292969 79.882812 123.871094 79.914062 123.449219 C 80.097656 122.164062 80.695312 121.121094 81.710938 120.320312 C 81.882812 120.167969 82.042969 120.003906 82.1875 119.824219 C 82.171875 119.523438 82.050781 119.273438 81.820312 119.074219 C 81.097656 118.8125 80.367188 118.785156 79.628906 118.988281 C 77.363281 119.378906 75.183594 120.050781 73.097656 121.003906 C 71.007812 121.960938 69.074219 123.167969 67.300781 124.628906 C 67.0625 124.824219 66.796875 124.964844 66.503906 125.050781 C 66.210938 125.136719 65.914062 125.164062 65.609375 125.132812 C 65.304688 125.101562 65.019531 125.011719 64.75 124.867188 C 64.480469 124.722656 64.25 124.527344 64.058594 124.292969 C 63.863281 124.054688 63.726562 123.789062 63.636719 123.496094 C 63.550781 123.203125 63.523438 122.902344 63.554688 122.601562 C 63.585938 122.296875 63.675781 122.007812 63.820312 121.742188 C 63.96875 121.472656 64.160156 121.242188 64.394531 121.046875 C 66.484375 119.335938 68.753906 117.917969 71.210938 116.800781 C 73.664062 115.679688 76.222656 114.894531 78.886719 114.441406 C 79.796875 114.226562 80.714844 114.183594 81.640625 114.308594 C 82.566406 114.429688 83.441406 114.71875 84.261719 115.164062 C 84.816406 115.511719 85.289062 115.949219 85.683594 116.472656 C 86.078125 116.996094 86.367188 117.570312 86.550781 118.199219 C 86.734375 118.828125 86.800781 119.46875 86.75 120.121094 C 86.699219 120.773438 86.535156 121.394531 86.257812 121.988281 C 85.953125 122.539062 85.566406 123.027344 85.105469 123.453125 L 85.148438 123.453125 C 89.332031 123.128906 93.367188 122.171875 97.25 120.582031 C 97.535156 120.460938 97.832031 120.398438 98.140625 120.394531 C 98.449219 120.390625 98.75 120.449219 99.035156 120.566406 C 99.320312 120.683594 99.574219 120.851562 99.792969 121.070312 C 100.011719 121.292969 100.179688 121.542969 100.296875 121.832031 C 100.414062 122.117188 100.46875 122.414062 100.464844 122.726562 C 100.460938 123.035156 100.398438 123.332031 100.277344 123.617188 C 100.152344 123.898438 99.980469 124.148438 99.757812 124.363281 C 99.53125 124.578125 99.277344 124.742188 98.988281 124.851562 C 94.660156 126.621094 90.164062 127.6875 85.5 128.050781 C 85.210938 128.070312 84.914062 128.089844 84.605469 128.089844 Z M 84.605469 128.089844 " fill-opacity="1" fill-rule="nonzero"/><path fill="#222325" d="M 135 65.851562 L 139.609375 65.851562 L 139.609375 135.003906 L 135 135.003906 Z M 135 65.851562 " fill-opacity="1" fill-rule="nonzero"/><g clip-path="url(#b50f7a0917)"><path fill="#222325" d="M 137.304688 33.582031 C 136.996094 33.582031 136.703125 33.523438 136.421875 33.40625 C 136.140625 33.289062 135.890625 33.125 135.671875 32.910156 C 135.457031 32.691406 135.289062 32.441406 135.171875 32.160156 C 135.058594 31.878906 135 31.585938 135 31.277344 L 135 10.535156 C 135 10.230469 134.96875 9.929688 134.910156 9.632812 C 134.851562 9.335938 134.761719 9.050781 134.648438 8.769531 C 134.53125 8.488281 134.390625 8.222656 134.222656 7.972656 C 134.054688 7.71875 133.863281 7.488281 133.648438 7.273438 C 133.433594 7.058594 133.203125 6.867188 132.949219 6.699219 C 132.699219 6.53125 132.433594 6.390625 132.152344 6.273438 C 131.871094 6.160156 131.585938 6.070312 131.289062 6.011719 C 130.992188 5.953125 130.691406 5.921875 130.386719 5.921875 L 28.96875 5.921875 C 28.664062 5.921875 28.367188 5.863281 28.085938 5.746094 C 27.804688 5.632812 27.554688 5.464844 27.339844 5.25 C 27.121094 5.03125 26.957031 4.78125 26.839844 4.5 C 26.722656 4.21875 26.664062 3.925781 26.664062 3.617188 C 26.664062 3.3125 26.722656 3.019531 26.839844 2.738281 C 26.957031 2.453125 27.121094 2.203125 27.339844 1.988281 C 27.554688 1.773438 27.804688 1.605469 28.085938 1.488281 C 28.367188 1.371094 28.664062 1.3125 28.96875 1.3125 L 130.386719 1.3125 C 130.992188 1.3125 131.59375 1.371094 132.1875 1.492188 C 132.78125 1.609375 133.355469 1.785156 133.917969 2.015625 C 134.476562 2.246094 135.007812 2.53125 135.511719 2.867188 C 136.015625 3.203125 136.480469 3.585938 136.90625 4.015625 C 137.335938 4.441406 137.71875 4.90625 138.054688 5.410156 C 138.390625 5.914062 138.675781 6.445312 138.90625 7.003906 C 139.136719 7.5625 139.3125 8.140625 139.429688 8.734375 C 139.550781 9.328125 139.609375 9.929688 139.609375 10.535156 L 139.609375 31.277344 C 139.609375 31.585938 139.550781 31.878906 139.433594 32.160156 C 139.316406 32.441406 139.148438 32.691406 138.933594 32.910156 C 138.71875 33.125 138.46875 33.289062 138.183594 33.40625 C 137.902344 33.523438 137.609375 33.582031 137.304688 33.582031 Z M 137.304688 33.582031 " fill-opacity="1" fill-rule="nonzero"/></g><g clip-path="url(#11380ee951)"><path fill="#222325" d="M 139.609375 148.832031 L 42.796875 148.832031 C 42.492188 148.832031 42.199219 148.773438 41.917969 148.65625 C 41.632812 148.539062 41.386719 148.375 41.167969 148.15625 C 40.953125 147.941406 40.785156 147.691406 40.667969 147.410156 C 40.550781 147.128906 40.492188 146.832031 40.492188 146.527344 C 40.492188 146.222656 40.550781 145.929688 40.667969 145.644531 C 40.785156 145.363281 40.953125 145.113281 41.167969 144.898438 C 41.386719 144.683594 41.632812 144.515625 41.917969 144.398438 C 42.199219 144.28125 42.492188 144.222656 42.796875 144.222656 L 139.609375 144.222656 C 139.910156 144.222656 140.210938 144.195312 140.507812 144.132812 C 140.804688 144.074219 141.09375 143.988281 141.371094 143.871094 C 141.652344 143.757812 141.917969 143.613281 142.167969 143.445312 C 142.421875 143.277344 142.652344 143.085938 142.867188 142.871094 C 143.082031 142.660156 143.273438 142.425781 143.441406 142.175781 C 143.609375 141.921875 143.75 141.65625 143.867188 141.378906 C 143.984375 141.097656 144.070312 140.808594 144.128906 140.511719 C 144.1875 140.214844 144.21875 139.914062 144.21875 139.613281 L 144.21875 137.308594 L 49.714844 137.308594 C 49.40625 137.308594 49.113281 137.25 48.832031 137.132812 C 48.550781 137.015625 48.300781 136.847656 48.082031 136.632812 C 47.867188 136.417969 47.699219 136.167969 47.585938 135.886719 C 47.46875 135.601562 47.410156 135.308594 47.410156 135.003906 C 47.410156 134.699219 47.46875 134.402344 47.585938 134.121094 C 47.699219 133.839844 47.867188 133.589844 48.082031 133.375 C 48.300781 133.15625 48.550781 132.992188 48.832031 132.875 C 49.113281 132.757812 49.40625 132.699219 49.714844 132.699219 L 146.523438 132.699219 C 146.828125 132.699219 147.121094 132.757812 147.40625 132.875 C 147.6875 132.992188 147.9375 133.15625 148.152344 133.375 C 148.371094 133.589844 148.535156 133.839844 148.652344 134.121094 C 148.769531 134.402344 148.828125 134.699219 148.828125 135.003906 L 148.828125 139.613281 C 148.828125 140.21875 148.769531 140.816406 148.652344 141.410156 C 148.53125 142.003906 148.359375 142.582031 148.125 143.140625 C 147.894531 143.699219 147.609375 144.230469 147.273438 144.734375 C 146.9375 145.238281 146.554688 145.703125 146.128906 146.132812 C 145.699219 146.5625 145.234375 146.941406 144.730469 147.277344 C 144.226562 147.617188 143.695312 147.898438 143.136719 148.132812 C 142.578125 148.363281 142 148.539062 141.40625 148.65625 C 140.8125 148.773438 140.214844 148.832031 139.609375 148.832031 Z M 139.609375 148.832031 " fill-opacity="1" fill-rule="nonzero"/></g><g clip-path="url(#2629e9ca14)"><path fill="#222325" d="M 42.796875 148.832031 C 42.191406 148.832031 41.59375 148.773438 41 148.65625 C 40.40625 148.539062 39.828125 148.363281 39.269531 148.132812 C 38.710938 147.898438 38.179688 147.617188 37.675781 147.277344 C 37.171875 146.941406 36.707031 146.5625 36.277344 146.132812 C 35.851562 145.703125 35.46875 145.238281 35.132812 144.734375 C 34.796875 144.230469 34.511719 143.699219 34.28125 143.140625 C 34.050781 142.582031 33.875 142.003906 33.753906 141.410156 C 33.636719 140.816406 33.578125 140.21875 33.578125 139.613281 L 33.578125 17.449219 L 22.054688 17.449219 C 21.75 17.449219 21.453125 17.390625 21.171875 17.273438 C 20.890625 17.15625 20.640625 16.988281 20.425781 16.773438 C 20.207031 16.558594 20.042969 16.308594 19.925781 16.027344 C 19.808594 15.742188 19.75 15.449219 19.75 15.144531 L 19.75 10.535156 C 19.75 9.929688 19.808594 9.328125 19.925781 8.734375 C 20.042969 8.140625 20.21875 7.5625 20.449219 7.003906 C 20.683594 6.445312 20.964844 5.914062 21.300781 5.410156 C 21.640625 4.90625 22.019531 4.441406 22.449219 4.015625 C 22.878906 3.585938 23.34375 3.203125 23.847656 2.867188 C 24.351562 2.53125 24.882812 2.246094 25.441406 2.015625 C 26 1.785156 26.578125 1.609375 27.171875 1.492188 C 27.765625 1.371094 28.363281 1.3125 28.96875 1.3125 C 29.574219 1.3125 30.171875 1.371094 30.765625 1.492188 C 31.359375 1.609375 31.9375 1.785156 32.496094 2.015625 C 33.054688 2.246094 33.585938 2.53125 34.089844 2.867188 C 34.59375 3.203125 35.058594 3.585938 35.488281 4.015625 C 35.917969 4.441406 36.296875 4.90625 36.636719 5.410156 C 36.972656 5.914062 37.253906 6.445312 37.488281 7.003906 C 37.71875 7.5625 37.894531 8.140625 38.011719 8.734375 C 38.128906 9.328125 38.1875 9.929688 38.1875 10.535156 L 38.1875 139.613281 C 38.1875 139.914062 38.21875 140.214844 38.277344 140.511719 C 38.335938 140.808594 38.421875 141.097656 38.539062 141.378906 C 38.65625 141.65625 38.796875 141.921875 38.964844 142.175781 C 39.132812 142.425781 39.324219 142.660156 39.539062 142.871094 C 39.753906 143.085938 39.984375 143.277344 40.238281 143.445312 C 40.488281 143.613281 40.753906 143.757812 41.035156 143.871094 C 41.3125 143.988281 41.601562 144.074219 41.898438 144.132812 C 42.195312 144.195312 42.496094 144.222656 42.796875 144.222656 C 43.101562 144.222656 43.402344 144.195312 43.699219 144.132812 C 43.996094 144.074219 44.28125 143.988281 44.5625 143.871094 C 44.84375 143.757812 45.109375 143.613281 45.359375 143.445312 C 45.613281 143.277344 45.84375 143.085938 46.058594 142.871094 C 46.273438 142.660156 46.464844 142.425781 46.632812 142.175781 C 46.800781 141.921875 46.941406 141.65625 47.058594 141.378906 C 47.171875 141.097656 47.261719 140.808594 47.320312 140.511719 C 47.378906 140.214844 47.410156 139.914062 47.410156 139.613281 L 47.410156 135.003906 C 47.410156 134.699219 47.46875 134.402344 47.585938 134.121094 C 47.699219 133.839844 47.867188 133.589844 48.082031 133.375 C 48.300781 133.15625 48.550781 132.992188 48.832031 132.875 C 49.113281 132.757812 49.40625 132.699219 49.714844 132.699219 C 50.019531 132.699219 50.3125 132.757812 50.597656 132.875 C 50.878906 132.992188 51.128906 133.15625 51.34375 133.375 C 51.558594 133.589844 51.726562 133.839844 51.84375 134.121094 C 51.960938 134.402344 52.019531 134.699219 52.019531 135.003906 L 52.019531 139.613281 C 52.019531 140.21875 51.960938 140.816406 51.839844 141.410156 C 51.722656 142.003906 51.546875 142.582031 51.316406 143.140625 C 51.085938 143.699219 50.800781 144.230469 50.464844 144.734375 C 50.128906 145.238281 49.746094 145.703125 49.316406 146.132812 C 48.890625 146.5625 48.425781 146.941406 47.921875 147.277344 C 47.417969 147.617188 46.886719 147.898438 46.328125 148.132812 C 45.769531 148.363281 45.191406 148.539062 44.597656 148.65625 C 44.003906 148.773438 43.402344 148.832031 42.796875 148.832031 Z M 24.359375 12.839844 L 33.578125 12.839844 L 33.578125 10.535156 C 33.578125 10.230469 33.550781 9.929688 33.488281 9.632812 C 33.429688 9.335938 33.34375 9.050781 33.226562 8.769531 C 33.113281 8.488281 32.96875 8.222656 32.800781 7.972656 C 32.632812 7.71875 32.441406 7.488281 32.226562 7.273438 C 32.015625 7.058594 31.78125 6.867188 31.53125 6.699219 C 31.277344 6.53125 31.011719 6.390625 30.734375 6.273438 C 30.453125 6.160156 30.164062 6.070312 29.867188 6.011719 C 29.570312 5.953125 29.269531 5.921875 28.96875 5.921875 C 28.664062 5.921875 28.367188 5.953125 28.070312 6.011719 C 27.773438 6.070312 27.484375 6.160156 27.203125 6.273438 C 26.925781 6.390625 26.660156 6.53125 26.40625 6.699219 C 26.15625 6.867188 25.921875 7.058594 25.707031 7.273438 C 25.496094 7.488281 25.304688 7.71875 25.136719 7.972656 C 24.96875 8.222656 24.824219 8.488281 24.710938 8.769531 C 24.59375 9.050781 24.507812 9.335938 24.449219 9.632812 C 24.386719 9.929688 24.359375 10.230469 24.359375 10.535156 Z M 24.359375 12.839844 " fill-opacity="1" fill-rule="nonzero"/></g><path fill="#222325" d="M 114.253906 42.804688 L 45.105469 42.804688 C 44.796875 42.804688 44.503906 42.746094 44.222656 42.628906 C 43.9375 42.511719 43.691406 42.34375 43.472656 42.128906 C 43.257812 41.910156 43.089844 41.664062 42.972656 41.378906 C 42.855469 41.097656 42.796875 40.804688 42.796875 40.5 L 42.796875 12.839844 C 42.796875 12.53125 42.855469 12.238281 42.972656 11.957031 C 43.089844 11.675781 43.257812 11.425781 43.472656 11.207031 C 43.691406 10.992188 43.9375 10.824219 44.222656 10.707031 C 44.503906 10.59375 44.796875 10.535156 45.105469 10.535156 L 114.253906 10.535156 C 114.558594 10.535156 114.851562 10.59375 115.136719 10.707031 C 115.417969 10.824219 115.667969 10.992188 115.882812 11.207031 C 116.097656 11.425781 116.265625 11.675781 116.382812 11.957031 C 116.5 12.238281 116.558594 12.53125 116.558594 12.839844 L 116.558594 40.5 C 116.558594 40.804688 116.5 41.097656 116.382812 41.378906 C 116.265625 41.664062 116.097656 41.910156 115.882812 42.128906 C 115.667969 42.34375 115.417969 42.511719 115.136719 42.628906 C 114.851562 42.746094 114.558594 42.804688 114.253906 42.804688 Z M 47.410156 38.191406 L 111.949219 38.191406 L 111.949219 15.144531 L 47.410156 15.144531 Z M 47.410156 38.191406 " fill-opacity="1" fill-rule="nonzero"/><path fill="#e6e4df" d="M 68.152344 33.582031 C 67.699219 33.582031 67.25 33.539062 66.804688 33.449219 C 66.359375 33.363281 65.925781 33.230469 65.507812 33.058594 C 65.085938 32.882812 64.6875 32.671875 64.3125 32.417969 C 63.933594 32.164062 63.585938 31.878906 63.265625 31.558594 C 62.941406 31.238281 62.65625 30.886719 62.402344 30.511719 C 62.152344 30.132812 61.9375 29.734375 61.765625 29.316406 C 61.589844 28.894531 61.460938 28.460938 61.371094 28.015625 C 61.28125 27.570312 61.238281 27.121094 61.238281 26.667969 C 61.238281 26.214844 61.28125 25.765625 61.371094 25.320312 C 61.460938 24.875 61.589844 24.441406 61.765625 24.023438 C 61.9375 23.601562 62.152344 23.203125 62.402344 22.828125 C 62.65625 22.449219 62.941406 22.101562 63.265625 21.777344 C 63.585938 21.457031 63.933594 21.171875 64.3125 20.917969 C 64.6875 20.667969 65.085938 20.453125 65.507812 20.28125 C 65.925781 20.105469 66.359375 19.976562 66.804688 19.886719 C 67.25 19.796875 67.699219 19.753906 68.152344 19.753906 C 68.609375 19.753906 69.058594 19.796875 69.503906 19.886719 C 69.949219 19.976562 70.378906 20.105469 70.800781 20.28125 C 71.21875 20.453125 71.617188 20.667969 71.996094 20.917969 C 72.371094 21.171875 72.722656 21.457031 73.042969 21.777344 C 73.363281 22.101562 73.652344 22.449219 73.902344 22.828125 C 74.15625 23.203125 74.367188 23.601562 74.542969 24.023438 C 74.714844 24.441406 74.847656 24.875 74.9375 25.320312 C 75.023438 25.765625 75.070312 26.214844 75.070312 26.667969 C 75.070312 27.121094 75.023438 27.570312 74.9375 28.015625 C 74.847656 28.460938 74.714844 28.894531 74.542969 29.316406 C 74.367188 29.734375 74.15625 30.132812 73.902344 30.511719 C 73.652344 30.886719 73.363281 31.238281 73.042969 31.558594 C 72.722656 31.878906 72.371094 32.164062 71.996094 32.417969 C 71.617188 32.671875 71.21875 32.882812 70.800781 33.058594 C 70.378906 33.230469 69.949219 33.363281 69.503906 33.449219 C 69.058594 33.539062 68.609375 33.582031 68.152344 33.582031 Z M 68.152344 24.363281 C 67.847656 24.363281 67.554688 24.421875 67.273438 24.539062 C 66.988281 24.65625 66.738281 24.824219 66.523438 25.039062 C 66.308594 25.253906 66.140625 25.503906 66.023438 25.785156 C 65.90625 26.070312 65.847656 26.363281 65.847656 26.667969 C 65.847656 26.972656 65.90625 27.269531 66.023438 27.550781 C 66.140625 27.832031 66.308594 28.082031 66.523438 28.296875 C 66.738281 28.515625 66.988281 28.679688 67.273438 28.796875 C 67.554688 28.914062 67.847656 28.972656 68.152344 28.972656 C 68.460938 28.972656 68.753906 28.914062 69.035156 28.796875 C 69.316406 28.679688 69.566406 28.515625 69.785156 28.296875 C 70 28.082031 70.167969 27.832031 70.28125 27.550781 C 70.398438 27.269531 70.457031 26.972656 70.457031 26.667969 C 70.457031 26.363281 70.398438 26.070312 70.28125 25.785156 C 70.167969 25.503906 70 25.253906 69.785156 25.039062 C 69.566406 24.824219 69.316406 24.65625 69.035156 24.539062 C 68.753906 24.421875 68.460938 24.363281 68.152344 24.363281 Z M 68.152344 24.363281 " fill-opacity="1" fill-rule="nonzero"/><path fill="#e6e4df" d="M 58.933594 33.582031 C 58.480469 33.582031 58.03125 33.539062 57.585938 33.449219 C 57.140625 33.363281 56.707031 33.230469 56.289062 33.058594 C 55.867188 32.882812 55.46875 32.671875 55.09375 32.417969 C 54.714844 32.164062 54.363281 31.878906 54.042969 31.558594 C 53.722656 31.238281 53.4375 30.886719 53.183594 30.511719 C 52.933594 30.132812 52.71875 29.734375 52.546875 29.316406 C 52.371094 28.894531 52.238281 28.460938 52.152344 28.015625 C 52.0625 27.570312 52.019531 27.121094 52.019531 26.667969 L 52.019531 22.058594 C 52.019531 21.753906 52.078125 21.457031 52.195312 21.175781 C 52.3125 20.894531 52.476562 20.644531 52.695312 20.429688 C 52.910156 20.210938 53.160156 20.046875 53.441406 19.929688 C 53.722656 19.8125 54.019531 19.753906 54.324219 19.753906 C 54.628906 19.753906 54.921875 19.8125 55.207031 19.929688 C 55.488281 20.046875 55.738281 20.210938 55.953125 20.429688 C 56.167969 20.644531 56.335938 20.894531 56.453125 21.175781 C 56.570312 21.457031 56.628906 21.753906 56.628906 22.058594 L 56.628906 26.667969 C 56.628906 26.972656 56.6875 27.269531 56.804688 27.550781 C 56.921875 27.832031 57.085938 28.082031 57.304688 28.296875 C 57.519531 28.515625 57.769531 28.679688 58.050781 28.796875 C 58.332031 28.914062 58.628906 28.972656 58.933594 28.972656 C 59.238281 28.972656 59.535156 29.03125 59.816406 29.148438 C 60.097656 29.265625 60.347656 29.433594 60.5625 29.648438 C 60.78125 29.863281 60.945312 30.113281 61.0625 30.394531 C 61.179688 30.679688 61.238281 30.972656 61.238281 31.277344 C 61.238281 31.585938 61.179688 31.878906 61.0625 32.160156 C 60.945312 32.441406 60.78125 32.691406 60.5625 32.910156 C 60.347656 33.125 60.097656 33.289062 59.816406 33.40625 C 59.535156 33.523438 59.238281 33.582031 58.933594 33.582031 Z M 58.933594 33.582031 " fill-opacity="1" fill-rule="nonzero"/><path fill="#e6e4df" d="M 88.898438 33.582031 C 88.59375 33.582031 88.296875 33.523438 88.015625 33.40625 C 87.734375 33.289062 87.484375 33.125 87.269531 32.910156 C 87.050781 32.691406 86.886719 32.441406 86.769531 32.160156 C 86.652344 31.878906 86.59375 31.585938 86.59375 31.277344 L 86.59375 26.667969 C 86.59375 26.363281 86.535156 26.070312 86.417969 25.785156 C 86.300781 25.503906 86.132812 25.253906 85.917969 25.039062 C 85.703125 24.824219 85.453125 24.65625 85.171875 24.539062 C 84.886719 24.421875 84.59375 24.363281 84.289062 24.363281 C 83.984375 24.363281 83.6875 24.421875 83.40625 24.539062 C 83.125 24.65625 82.875 24.824219 82.660156 25.039062 C 82.441406 25.253906 82.277344 25.503906 82.160156 25.785156 C 82.042969 26.070312 81.984375 26.363281 81.984375 26.667969 L 81.984375 31.277344 C 81.984375 31.585938 81.925781 31.878906 81.808594 32.160156 C 81.691406 32.441406 81.523438 32.691406 81.308594 32.910156 C 81.09375 33.125 80.84375 33.289062 80.5625 33.40625 C 80.277344 33.523438 79.984375 33.582031 79.679688 33.582031 C 79.371094 33.582031 79.078125 33.523438 78.796875 33.40625 C 78.515625 33.289062 78.265625 33.125 78.046875 32.910156 C 77.832031 32.691406 77.664062 32.441406 77.550781 32.160156 C 77.433594 31.878906 77.375 31.585938 77.375 31.277344 L 77.375 26.667969 C 77.375 26.214844 77.417969 25.765625 77.507812 25.320312 C 77.59375 24.875 77.726562 24.441406 77.898438 24.023438 C 78.074219 23.601562 78.285156 23.203125 78.539062 22.828125 C 78.792969 22.449219 79.078125 22.101562 79.398438 21.777344 C 79.71875 21.457031 80.070312 21.171875 80.445312 20.917969 C 80.824219 20.667969 81.222656 20.453125 81.640625 20.28125 C 82.0625 20.105469 82.496094 19.976562 82.941406 19.886719 C 83.386719 19.796875 83.835938 19.753906 84.289062 19.753906 C 84.742188 19.753906 85.191406 19.796875 85.636719 19.886719 C 86.082031 19.976562 86.515625 20.105469 86.933594 20.28125 C 87.355469 20.453125 87.753906 20.667969 88.128906 20.917969 C 88.507812 21.171875 88.855469 21.457031 89.179688 21.777344 C 89.5 22.101562 89.785156 22.449219 90.039062 22.828125 C 90.289062 23.203125 90.503906 23.601562 90.675781 24.023438 C 90.851562 24.441406 90.980469 24.875 91.070312 25.320312 C 91.160156 25.765625 91.203125 26.214844 91.203125 26.667969 L 91.203125 31.277344 C 91.203125 31.585938 91.144531 31.878906 91.027344 32.160156 C 90.910156 32.441406 90.746094 32.691406 90.527344 32.910156 C 90.3125 33.125 90.0625 33.289062 89.78125 33.40625 C 89.5 33.523438 89.203125 33.582031 88.898438 33.582031 Z M 88.898438 33.582031 " fill-opacity="1" fill-rule="nonzero"/><path fill="#e6e4df" d="M 88.898438 31.277344 L 79.679688 31.277344 C 79.371094 31.277344 79.078125 31.21875 78.796875 31.101562 C 78.515625 30.984375 78.265625 30.820312 78.046875 30.601562 C 77.832031 30.386719 77.664062 30.136719 77.550781 29.855469 C 77.433594 29.574219 77.375 29.277344 77.375 28.972656 C 77.375 28.667969 77.433594 28.375 77.550781 28.089844 C 77.664062 27.808594 77.832031 27.558594 78.046875 27.34375 C 78.265625 27.128906 78.515625 26.960938 78.796875 26.84375 C 79.078125 26.726562 79.371094 26.667969 79.679688 26.667969 L 88.898438 26.667969 C 89.203125 26.667969 89.5 26.726562 89.78125 26.84375 C 90.0625 26.960938 90.3125 27.128906 90.527344 27.34375 C 90.746094 27.558594 90.910156 27.808594 91.027344 28.089844 C 91.144531 28.375 91.203125 28.667969 91.203125 28.972656 C 91.203125 29.277344 91.144531 29.574219 91.027344 29.855469 C 90.910156 30.136719 90.746094 30.386719 90.527344 30.601562 C 90.3125 30.820312 90.0625 30.984375 89.78125 31.101562 C 89.5 31.21875 89.203125 31.277344 88.898438 31.277344 Z M 88.898438 31.277344 " fill-opacity="1" fill-rule="nonzero"/><path fill="#e6e4df" d="M 105.035156 33.582031 C 104.398438 33.582031 103.855469 33.359375 103.402344 32.90625 L 98.117188 27.621094 L 98.117188 31.277344 C 98.117188 31.585938 98.058594 31.878906 97.941406 32.160156 C 97.824219 32.441406 97.660156 32.691406 97.441406 32.910156 C 97.226562 33.125 96.976562 33.289062 96.695312 33.40625 C 96.414062 33.523438 96.117188 33.582031 95.8125 33.582031 C 95.507812 33.582031 95.214844 33.523438 94.929688 33.40625 C 94.648438 33.289062 94.398438 33.125 94.183594 32.910156 C 93.96875 32.691406 93.800781 32.441406 93.683594 32.160156 C 93.566406 31.878906 93.507812 31.585938 93.507812 31.277344 L 93.507812 22.058594 C 93.507812 21.59375 93.636719 21.164062 93.898438 20.777344 C 94.15625 20.390625 94.5 20.109375 94.929688 19.929688 C 95.363281 19.75 95.804688 19.707031 96.261719 19.796875 C 96.71875 19.890625 97.113281 20.097656 97.441406 20.429688 L 102.726562 25.714844 L 102.726562 22.058594 C 102.726562 21.753906 102.785156 21.457031 102.902344 21.175781 C 103.019531 20.894531 103.1875 20.644531 103.402344 20.429688 C 103.621094 20.210938 103.867188 20.046875 104.152344 19.929688 C 104.433594 19.8125 104.726562 19.753906 105.035156 19.753906 C 105.339844 19.753906 105.632812 19.8125 105.914062 19.929688 C 106.199219 20.046875 106.445312 20.210938 106.664062 20.429688 C 106.878906 20.644531 107.046875 20.894531 107.164062 21.175781 C 107.28125 21.457031 107.339844 21.753906 107.339844 22.058594 L 107.339844 31.277344 C 107.339844 31.585938 107.28125 31.878906 107.164062 32.160156 C 107.046875 32.441406 106.878906 32.691406 106.664062 32.910156 C 106.445312 33.125 106.199219 33.289062 105.914062 33.40625 C 105.632812 33.523438 105.339844 33.582031 105.035156 33.582031 Z M 105.035156 33.582031 " fill-opacity="1" fill-rule="nonzero"/><g clip-path="url(#126fb52c74)"><path fill="#222325" d="M 100.421875 109.648438 C 99.953125 109.648438 99.523438 109.515625 99.132812 109.253906 C 98.742188 108.988281 98.460938 108.636719 98.285156 108.199219 C 95.222656 99.730469 93.632812 90.992188 93.507812 81.988281 C 93.507812 62.625 103.238281 55.101562 103.652344 54.789062 C 104.058594 54.480469 104.519531 54.328125 105.035156 54.328125 L 111.949219 54.328125 L 111.949219 49.71875 C 111.949219 49.550781 111.964844 49.382812 112 49.21875 C 116.957031 26.925781 163.003906 26.667969 164.964844 26.667969 C 165.269531 26.667969 165.5625 26.726562 165.84375 26.84375 C 166.128906 26.960938 166.378906 27.128906 166.59375 27.34375 C 166.808594 27.558594 166.976562 27.808594 167.09375 28.089844 C 167.210938 28.375 167.269531 28.667969 167.269531 28.972656 C 167.269531 29.78125 167.074219 48.863281 149.980469 58.632812 C 149.847656 58.710938 149.710938 58.773438 149.566406 58.820312 C 149.058594 58.988281 137.304688 63.117188 137.304688 75.074219 C 137.304688 88.964844 126.027344 105.039062 100.835938 109.609375 C 100.699219 109.636719 100.5625 109.648438 100.421875 109.648438 Z M 105.890625 58.9375 C 104.046875 60.675781 98.121094 67.40625 98.121094 81.988281 C 98.269531 89.746094 99.527344 97.316406 101.898438 104.703125 C 126.148438 99.578125 132.691406 83.789062 132.691406 75.074219 C 132.691406 62.992188 142.488281 56.402344 147.871094 54.523438 C 149.90625 53.289062 151.769531 51.839844 153.464844 50.171875 C 155.160156 48.503906 156.640625 46.664062 157.910156 44.652344 C 159.179688 42.640625 160.199219 40.511719 160.972656 38.261719 C 161.746094 36.015625 162.25 33.707031 162.488281 31.339844 C 153.144531 31.699219 120.40625 34.089844 116.558594 49.980469 L 116.558594 56.632812 C 116.558594 56.9375 116.5 57.234375 116.382812 57.515625 C 116.265625 57.796875 116.097656 58.046875 115.882812 58.261719 C 115.667969 58.480469 115.417969 58.644531 115.136719 58.761719 C 114.851562 58.878906 114.558594 58.9375 114.253906 58.9375 Z M 105.890625 58.9375 " fill-opacity="1" fill-rule="nonzero"/></g><g clip-path="url(#7079cce847)"><path fill="#222325" d="M 98.117188 123.476562 C 97.992188 123.480469 97.863281 123.46875 97.738281 123.445312 C 97.4375 123.394531 97.15625 123.289062 96.898438 123.128906 C 96.636719 122.964844 96.417969 122.761719 96.242188 122.511719 C 96.0625 122.261719 95.941406 121.988281 95.871094 121.691406 C 95.800781 121.394531 95.792969 121.09375 95.84375 120.792969 L 98.148438 106.960938 C 98.527344 104.726562 98.980469 102.507812 99.507812 100.300781 C 100.03125 98.09375 100.628906 95.90625 101.296875 93.738281 C 101.964844 91.574219 102.703125 89.429688 103.511719 87.308594 C 104.316406 85.191406 105.195312 83.101562 106.136719 81.039062 C 107.082031 78.976562 108.089844 76.945312 109.167969 74.949219 C 110.242188 72.953125 111.382812 70.996094 112.585938 69.074219 C 113.789062 67.152344 115.054688 65.269531 116.382812 63.429688 C 117.707031 61.589844 119.09375 59.796875 120.535156 58.046875 C 121.976562 56.296875 123.476562 54.597656 125.03125 52.945312 C 126.585938 51.292969 128.191406 49.695312 129.847656 48.148438 C 131.507812 46.601562 133.214844 45.109375 134.96875 43.671875 C 136.722656 42.234375 138.523438 40.859375 140.371094 39.539062 C 142.214844 38.222656 144.101562 36.964844 146.027344 35.769531 C 147.953125 34.574219 149.917969 33.441406 151.917969 32.375 C 153.917969 31.304688 155.953125 30.304688 158.019531 29.367188 C 160.085938 28.433594 162.179688 27.566406 164.300781 26.765625 C 164.59375 26.679688 164.894531 26.648438 165.195312 26.679688 C 165.5 26.707031 165.789062 26.792969 166.058594 26.9375 C 166.328125 27.082031 166.558594 27.273438 166.753906 27.507812 C 166.949219 27.746094 167.089844 28.007812 167.179688 28.300781 C 167.269531 28.59375 167.296875 28.890625 167.269531 29.195312 C 167.238281 29.5 167.152344 29.789062 167.007812 30.058594 C 166.863281 30.328125 166.675781 30.558594 166.4375 30.753906 C 166.203125 30.949219 165.9375 31.089844 165.644531 31.179688 C 163.625 31.945312 161.628906 32.777344 159.660156 33.675781 C 157.695312 34.570312 155.757812 35.53125 153.851562 36.554688 C 151.945312 37.574219 150.078125 38.660156 148.242188 39.804688 C 146.40625 40.949219 144.609375 42.148438 142.855469 43.410156 C 141.097656 44.671875 139.382812 45.988281 137.714844 47.359375 C 136.042969 48.734375 134.417969 50.160156 132.839844 51.636719 C 131.261719 53.117188 129.734375 54.644531 128.253906 56.222656 C 126.773438 57.796875 125.347656 59.421875 123.976562 61.09375 C 122.601562 62.761719 121.285156 64.476562 120.023438 66.234375 C 118.761719 67.988281 117.558594 69.785156 116.414062 71.617188 C 115.269531 73.453125 114.183594 75.324219 113.160156 77.226562 C 112.136719 79.132812 111.179688 81.066406 110.28125 83.035156 C 109.382812 85.003906 108.550781 86.996094 107.78125 89.019531 C 107.015625 91.039062 106.3125 93.085938 105.679688 95.152344 C 105.046875 97.21875 104.476562 99.304688 103.980469 101.410156 C 103.480469 103.511719 103.050781 105.628906 102.6875 107.761719 L 100.382812 121.554688 C 100.339844 121.820312 100.25 122.074219 100.117188 122.3125 C 99.980469 122.546875 99.808594 122.753906 99.601562 122.929688 C 99.394531 123.105469 99.164062 123.242188 98.910156 123.335938 C 98.652344 123.429688 98.390625 123.476562 98.117188 123.476562 Z M 98.117188 123.476562 " fill-opacity="1" fill-rule="nonzero"/></g><path fill="#222325" d="M 107.339844 86.597656 C 106.875 86.597656 106.453125 86.464844 106.066406 86.207031 C 105.683594 85.949219 105.402344 85.609375 105.222656 85.179688 C 105.042969 84.753906 105 84.3125 105.085938 83.859375 C 105.175781 83.402344 105.378906 83.011719 105.703125 82.679688 C 107.855469 80.855469 110.265625 79.484375 112.9375 78.570312 C 115.605469 77.65625 118.347656 77.257812 121.167969 77.378906 C 121.472656 77.378906 121.769531 77.4375 122.050781 77.554688 C 122.332031 77.671875 122.582031 77.835938 122.796875 78.054688 C 123.015625 78.269531 123.179688 78.519531 123.296875 78.800781 C 123.414062 79.082031 123.472656 79.378906 123.472656 79.683594 C 123.472656 79.988281 123.414062 80.28125 123.296875 80.566406 C 123.179688 80.847656 123.015625 81.097656 122.796875 81.3125 C 122.582031 81.527344 122.332031 81.695312 122.050781 81.8125 C 121.769531 81.929688 121.472656 81.988281 121.167969 81.988281 C 118.957031 81.871094 116.800781 82.15625 114.695312 82.835938 C 112.589844 83.515625 110.675781 84.546875 108.953125 85.933594 C 108.503906 86.375 107.964844 86.597656 107.339844 86.597656 Z M 107.339844 86.597656 " fill-opacity="1" fill-rule="nonzero"/><path fill="#222325" d="M 105.035156 72.769531 C 104.726562 72.769531 104.433594 72.710938 104.152344 72.59375 C 103.867188 72.476562 103.621094 72.308594 103.402344 72.09375 C 103.1875 71.878906 103.019531 71.628906 102.902344 71.34375 C 102.785156 71.0625 102.726562 70.769531 102.726562 70.464844 L 102.726562 68.160156 C 102.726562 67.851562 102.785156 67.558594 102.902344 67.277344 C 103.019531 66.992188 103.1875 66.746094 103.402344 66.527344 C 103.621094 66.3125 103.867188 66.144531 104.152344 66.027344 C 104.433594 65.910156 104.726562 65.851562 105.035156 65.851562 C 105.339844 65.851562 105.632812 65.910156 105.914062 66.027344 C 106.199219 66.144531 106.445312 66.3125 106.664062 66.527344 C 106.878906 66.746094 107.046875 66.992188 107.164062 67.277344 C 107.28125 67.558594 107.339844 67.851562 107.339844 68.160156 L 107.339844 70.464844 C 107.339844 70.769531 107.28125 71.0625 107.164062 71.34375 C 107.046875 71.628906 106.878906 71.878906 106.664062 72.09375 C 106.445312 72.308594 106.199219 72.476562 105.914062 72.59375 C 105.632812 72.710938 105.339844 72.769531 105.035156 72.769531 Z M 105.035156 72.769531 " fill-opacity="1" fill-rule="nonzero"/><path fill="#222325" d="M 91.203125 54.328125 L 45.105469 54.328125 C 44.796875 54.328125 44.503906 54.269531 44.222656 54.152344 C 43.9375 54.035156 43.691406 53.871094 43.472656 53.652344 C 43.257812 53.4375 43.089844 53.1875 42.972656 52.90625 C 42.855469 52.621094 42.796875 52.328125 42.796875 52.023438 C 42.796875 51.71875 42.855469 51.421875 42.972656 51.140625 C 43.089844 50.859375 43.257812 50.609375 43.472656 50.394531 C 43.691406 50.175781 43.9375 50.011719 44.222656 49.894531 C 44.503906 49.777344 44.796875 49.71875 45.105469 49.71875 L 91.203125 49.71875 C 91.507812 49.71875 91.804688 49.777344 92.085938 49.894531 C 92.367188 50.011719 92.617188 50.175781 92.832031 50.394531 C 93.050781 50.609375 93.214844 50.859375 93.332031 51.140625 C 93.449219 51.421875 93.507812 51.71875 93.507812 52.023438 C 93.507812 52.328125 93.449219 52.621094 93.332031 52.90625 C 93.214844 53.1875 93.050781 53.4375 92.832031 53.652344 C 92.617188 53.871094 92.367188 54.035156 92.085938 54.152344 C 91.804688 54.269531 91.507812 54.328125 91.203125 54.328125 Z M 91.203125 54.328125 " fill-opacity="1" fill-rule="nonzero"/><path fill="#222325" d="M 86.59375 63.546875 L 45.105469 63.546875 C 44.796875 63.546875 44.503906 63.488281 44.222656 63.371094 C 43.9375 63.253906 43.691406 63.089844 43.472656 62.875 C 43.257812 62.65625 43.089844 62.40625 42.972656 62.125 C 42.855469 61.84375 42.796875 61.550781 42.796875 61.242188 C 42.796875 60.9375 42.855469 60.644531 42.972656 60.359375 C 43.089844 60.078125 43.257812 59.828125 43.472656 59.613281 C 43.691406 59.398438 43.9375 59.230469 44.222656 59.113281 C 44.503906 58.996094 44.796875 58.9375 45.105469 58.9375 L 86.59375 58.9375 C 86.898438 58.9375 87.191406 58.996094 87.476562 59.113281 C 87.757812 59.230469 88.007812 59.398438 88.222656 59.613281 C 88.441406 59.828125 88.605469 60.078125 88.722656 60.359375 C 88.839844 60.644531 88.898438 60.9375 88.898438 61.242188 C 88.898438 61.550781 88.839844 61.84375 88.722656 62.125 C 88.605469 62.40625 88.441406 62.65625 88.222656 62.875 C 88.007812 63.089844 87.757812 63.253906 87.476562 63.371094 C 87.191406 63.488281 86.898438 63.546875 86.59375 63.546875 Z M 86.59375 63.546875 " fill-opacity="1" fill-rule="nonzero"/><path fill="#222325" d="M 81.984375 72.769531 L 45.105469 72.769531 C 44.796875 72.769531 44.503906 72.710938 44.222656 72.59375 C 43.9375 72.476562 43.691406 72.308594 43.472656 72.09375 C 43.257812 71.878906 43.089844 71.628906 42.972656 71.34375 C 42.855469 71.0625 42.796875 70.769531 42.796875 70.464844 C 42.796875 70.15625 42.855469 69.863281 42.972656 69.582031 C 43.089844 69.296875 43.257812 69.050781 43.472656 68.832031 C 43.691406 68.617188 43.9375 68.449219 44.222656 68.332031 C 44.503906 68.214844 44.796875 68.160156 45.105469 68.160156 L 81.984375 68.160156 C 82.289062 68.160156 82.582031 68.214844 82.867188 68.332031 C 83.148438 68.449219 83.398438 68.617188 83.613281 68.832031 C 83.828125 69.050781 83.996094 69.296875 84.113281 69.582031 C 84.230469 69.863281 84.289062 70.15625 84.289062 70.464844 C 84.289062 70.769531 84.230469 71.0625 84.113281 71.34375 C 83.996094 71.628906 83.828125 71.878906 83.613281 72.09375 C 83.398438 72.308594 83.148438 72.476562 82.867188 72.59375 C 82.582031 72.710938 82.289062 72.769531 81.984375 72.769531 Z M 81.984375 72.769531 " fill-opacity="1" fill-rule="nonzero"/><path fill="#222325" d="M 86.59375 95.816406 L 54.324219 95.816406 C 54.019531 95.816406 53.722656 95.757812 53.441406 95.644531 C 53.160156 95.527344 52.910156 95.359375 52.695312 95.144531 C 52.476562 94.925781 52.3125 94.675781 52.195312 94.394531 C 52.078125 94.113281 52.019531 93.820312 52.019531 93.511719 C 52.019531 93.207031 52.078125 92.914062 52.195312 92.632812 C 52.3125 92.347656 52.476562 92.097656 52.695312 91.882812 C 52.910156 91.667969 53.160156 91.5 53.441406 91.382812 C 53.722656 91.265625 54.019531 91.207031 54.324219 91.207031 L 86.59375 91.207031 C 86.898438 91.207031 87.191406 91.265625 87.476562 91.382812 C 87.757812 91.5 88.007812 91.667969 88.222656 91.882812 C 88.441406 92.097656 88.605469 92.347656 88.722656 92.632812 C 88.839844 92.914062 88.898438 93.207031 88.898438 93.511719 C 88.898438 93.820312 88.839844 94.113281 88.722656 94.394531 C 88.605469 94.675781 88.441406 94.925781 88.222656 95.144531 C 88.007812 95.359375 87.757812 95.527344 87.476562 95.644531 C 87.191406 95.757812 86.898438 95.816406 86.59375 95.816406 Z M 86.59375 95.816406 " fill-opacity="1" fill-rule="nonzero"/></svg>