<svg xmlns="http://www.w3.org/2000/svg" xmlns:xlink="http://www.w3.org/1999/xlink" width="40" zoomAndPan="magnify" viewBox="0 0 30 30.000001" height="40" preserveAspectRatio="xMidYMid meet" version="1.0"><defs><clipPath id="8831c0d0bb"><path d="M 0.484375 5.226562 L 29.515625 5.226562 L 29.515625 24.097656 L 0.484375 24.097656 Z M 0.484375 5.226562 " clip-rule="nonzero"/></clipPath><clipPath id="fd74b27795"><path d="M 0.484375 5.226562 L 29.515625 5.226562 L 29.515625 7 L 0.484375 7 Z M 0.484375 5.226562 " clip-rule="nonzero"/></clipPath><clipPath id="f433f4b464"><path d="M 0.484375 8 L 29.515625 8 L 29.515625 10 L 0.484375 10 Z M 0.484375 8 " clip-rule="nonzero"/></clipPath><clipPath id="dd87c0a9a4"><path d="M 0.484375 11 L 29.515625 11 L 29.515625 13 L 0.484375 13 Z M 0.484375 11 " clip-rule="nonzero"/></clipPath><clipPath id="8b88b7b8ea"><path d="M 0.484375 14 L 29.515625 14 L 29.515625 16 L 0.484375 16 Z M 0.484375 14 " clip-rule="nonzero"/></clipPath><clipPath id="0af786c56e"><path d="M 0.484375 17 L 29.515625 17 L 29.515625 19 L 0.484375 19 Z M 0.484375 17 " clip-rule="nonzero"/></clipPath><clipPath id="2566c0d41a"><path d="M 0.484375 19 L 29.515625 19 L 29.515625 22 L 0.484375 22 Z M 0.484375 19 " clip-rule="nonzero"/></clipPath><clipPath id="be7072244f"><path d="M 0.484375 22 L 29.515625 22 L 29.515625 24.097656 L 0.484375 24.097656 Z M 0.484375 22 " clip-rule="nonzero"/></clipPath><clipPath id="1bf158693c"><path d="M 0.484375 5.226562 L 15 5.226562 L 15 16 L 0.484375 16 Z M 0.484375 5.226562 " clip-rule="nonzero"/></clipPath><clipPath id="e63d2cdcd1"><path d="M 1 5.226562 L 3 5.226562 L 3 7 L 1 7 Z M 1 5.226562 " clip-rule="nonzero"/></clipPath><clipPath id="400a62aa74"><path d="M 3 5.226562 L 5 5.226562 L 5 7 L 3 7 Z M 3 5.226562 " clip-rule="nonzero"/></clipPath><clipPath id="72df15bcf9"><path d="M 5 5.226562 L 8 5.226562 L 8 7 L 5 7 Z M 5 5.226562 " clip-rule="nonzero"/></clipPath><clipPath id="44585ef704"><path d="M 8 5.226562 L 10 5.226562 L 10 7 L 8 7 Z M 8 5.226562 " clip-rule="nonzero"/></clipPath><clipPath id="bb136740b7"><path d="M 10 5.226562 L 12 5.226562 L 12 7 L 10 7 Z M 10 5.226562 " clip-rule="nonzero"/></clipPath><clipPath id="4a8bee9eaa"><path d="M 13 5.226562 L 15 5.226562 L 15 7 L 13 7 Z M 13 5.226562 " clip-rule="nonzero"/></clipPath><clipPath id="ef976a775d"><path d="M 0.484375 7 L 3 7 L 3 9 L 0.484375 9 Z M 0.484375 7 " clip-rule="nonzero"/></clipPath></defs><g clip-path="url(#8831c0d0bb)"><path fill="#ffffff" d="M 29.515625 24.070312 L 0.484375 24.070312 L 0.484375 5.226562 L 29.515625 5.226562 L 29.515625 24.070312 " fill-opacity="1" fill-rule="nonzero"/></g><g clip-path="url(#fd74b27795)"><path fill="#ed1c24" d="M 29.515625 6.683594 L 0.484375 6.683594 L 0.484375 5.226562 L 29.515625 5.226562 L 29.515625 6.683594 " fill-opacity="1" fill-rule="nonzero"/></g><g clip-path="url(#f433f4b464)"><path fill="#ed1c24" d="M 29.515625 9.625 L 0.484375 9.625 L 0.484375 8.167969 L 29.515625 8.167969 L 29.515625 9.625 " fill-opacity="1" fill-rule="nonzero"/></g><g clip-path="url(#dd87c0a9a4)"><path fill="#ed1c24" d="M 29.515625 12.699219 L 0.484375 12.699219 L 0.484375 11.242188 L 29.515625 11.242188 L 29.515625 12.699219 " fill-opacity="1" fill-rule="nonzero"/></g><g clip-path="url(#8b88b7b8ea)"><path fill="#ed1c24" d="M 29.515625 15.773438 L 0.484375 15.773438 L 0.484375 14.316406 L 29.515625 14.316406 L 29.515625 15.773438 " fill-opacity="1" fill-rule="nonzero"/></g><g clip-path="url(#0af786c56e)"><path fill="#ed1c24" d="M 29.515625 18.585938 L 0.484375 18.585938 L 0.484375 17.132812 L 29.515625 17.132812 L 29.515625 18.585938 " fill-opacity="1" fill-rule="nonzero"/></g><g clip-path="url(#2566c0d41a)"><path fill="#ed1c24" d="M 29.515625 21.226562 L 0.484375 21.226562 L 0.484375 19.769531 L 29.515625 19.769531 L 29.515625 21.226562 " fill-opacity="1" fill-rule="nonzero"/></g><g clip-path="url(#be7072244f)"><path fill="#ed1c24" d="M 29.515625 24.097656 L 0.484375 24.097656 L 0.484375 22.640625 L 29.515625 22.640625 L 29.515625 24.097656 " fill-opacity="1" fill-rule="nonzero"/></g><g clip-path="url(#1bf158693c)"><path fill="#304d89" d="M 14.90625 15.773438 L 0.484375 15.773438 L 0.484375 5.226562 L 14.90625 5.226562 L 14.90625 15.773438 " fill-opacity="1" fill-rule="nonzero"/></g><g clip-path="url(#e63d2cdcd1)"><path fill="#ffffff" d="M 1.539062 5.699219 L 1.707031 6.042969 L 2.078125 6.101562 L 1.808594 6.371094 L 1.871094 6.75 L 1.539062 6.570312 L 1.207031 6.75 L 1.269531 6.371094 L 1 6.101562 L 1.371094 6.042969 L 1.539062 5.699219 " fill-opacity="1" fill-rule="nonzero"/></g><g clip-path="url(#400a62aa74)"><path fill="#ffffff" d="M 4.003906 5.679688 L 4.167969 6.027344 L 4.542969 6.082031 L 4.273438 6.351562 L 4.335938 6.734375 L 4.003906 6.554688 L 3.667969 6.734375 L 3.730469 6.351562 L 3.460938 6.082031 L 3.835938 6.027344 L 4.003906 5.679688 " fill-opacity="1" fill-rule="nonzero"/></g><g clip-path="url(#72df15bcf9)"><path fill="#ffffff" d="M 6.464844 5.699219 L 6.632812 6.042969 L 7.003906 6.101562 L 6.734375 6.371094 L 6.796875 6.75 L 6.464844 6.570312 L 6.132812 6.75 L 6.195312 6.371094 L 5.925781 6.101562 L 6.300781 6.042969 L 6.464844 5.699219 " fill-opacity="1" fill-rule="nonzero"/></g><g clip-path="url(#44585ef704)"><path fill="#ffffff" d="M 8.910156 5.679688 L 9.078125 6.027344 L 9.449219 6.082031 L 9.179688 6.351562 L 9.246094 6.734375 L 8.910156 6.554688 L 8.578125 6.734375 L 8.640625 6.351562 L 8.371094 6.082031 L 8.746094 6.027344 L 8.910156 5.679688 " fill-opacity="1" fill-rule="nonzero"/></g><g clip-path="url(#bb136740b7)"><path fill="#ffffff" d="M 11.355469 5.679688 L 11.523438 6.027344 L 11.898438 6.082031 L 11.625 6.351562 L 11.691406 6.734375 L 11.355469 6.554688 L 11.023438 6.734375 L 11.085938 6.351562 L 10.816406 6.082031 L 11.191406 6.027344 L 11.355469 5.679688 " fill-opacity="1" fill-rule="nonzero"/></g><g clip-path="url(#4a8bee9eaa)"><path fill="#ffffff" d="M 13.839844 5.734375 L 14.003906 6.082031 L 14.378906 6.136719 L 14.109375 6.40625 L 14.171875 6.789062 L 13.839844 6.605469 L 13.503906 6.789062 L 13.570312 6.40625 L 13.300781 6.136719 L 13.671875 6.082031 L 13.839844 5.734375 " fill-opacity="1" fill-rule="nonzero"/></g><path fill="#ffffff" d="M 12.625 6.78125 L 12.789062 7.128906 L 13.164062 7.183594 L 12.894531 7.453125 L 12.957031 7.835938 L 12.625 7.65625 L 12.289062 7.835938 L 12.355469 7.453125 L 12.085938 7.183594 L 12.457031 7.128906 L 12.625 6.78125 " fill-opacity="1" fill-rule="nonzero"/><path fill="#ffffff" d="M 10.160156 6.746094 L 10.328125 7.09375 L 10.699219 7.148438 L 10.429688 7.417969 L 10.492188 7.800781 L 10.160156 7.621094 L 9.828125 7.800781 L 9.890625 7.417969 L 9.621094 7.148438 L 9.992188 7.09375 L 10.160156 6.746094 " fill-opacity="1" fill-rule="nonzero"/><path fill="#ffffff" d="M 7.699219 6.765625 L 7.863281 7.109375 L 8.238281 7.164062 L 7.96875 7.4375 L 8.03125 7.816406 L 7.699219 7.636719 L 7.363281 7.816406 L 7.425781 7.4375 L 7.15625 7.164062 L 7.53125 7.109375 L 7.699219 6.765625 " fill-opacity="1" fill-rule="nonzero"/><path fill="#ffffff" d="M 5.234375 6.78125 L 5.402344 7.128906 L 5.773438 7.183594 L 5.503906 7.453125 L 5.566406 7.835938 L 5.234375 7.65625 L 4.902344 7.835938 L 4.964844 7.453125 L 4.695312 7.183594 L 5.066406 7.128906 L 5.234375 6.78125 " fill-opacity="1" fill-rule="nonzero"/><path fill="#ffffff" d="M 2.753906 6.765625 L 2.917969 7.109375 L 3.292969 7.164062 L 3.023438 7.4375 L 3.085938 7.816406 L 2.753906 7.636719 L 2.417969 7.816406 L 2.484375 7.4375 L 2.214844 7.164062 L 2.585938 7.109375 L 2.753906 6.765625 " fill-opacity="1" fill-rule="nonzero"/><g clip-path="url(#ef976a775d)"><path fill="#ffffff" d="M 1.503906 7.8125 L 1.671875 8.160156 L 2.042969 8.214844 L 1.773438 8.484375 L 1.835938 8.863281 L 1.503906 8.683594 L 1.171875 8.863281 L 1.234375 8.484375 L 0.964844 8.214844 L 1.335938 8.160156 L 1.503906 7.8125 " fill-opacity="1" fill-rule="nonzero"/></g><path fill="#ffffff" d="M 4.003906 7.8125 L 4.167969 8.160156 L 4.542969 8.214844 L 4.273438 8.484375 L 4.335938 8.863281 L 4.003906 8.683594 L 3.667969 8.863281 L 3.730469 8.484375 L 3.460938 8.214844 L 3.835938 8.160156 L 4.003906 7.8125 " fill-opacity="1" fill-rule="nonzero"/><path fill="#ffffff" d="M 6.464844 7.847656 L 6.632812 8.195312 L 7.003906 8.25 L 6.734375 8.519531 L 6.796875 8.902344 L 6.464844 8.722656 L 6.132812 8.902344 L 6.195312 8.519531 L 5.925781 8.25 L 6.300781 8.195312 L 6.464844 7.847656 " fill-opacity="1" fill-rule="nonzero"/><path fill="#ffffff" d="M 8.875 7.828125 L 9.042969 8.175781 L 9.414062 8.230469 L 9.144531 8.503906 L 9.210938 8.882812 L 8.875 8.703125 L 8.542969 8.882812 L 8.605469 8.503906 L 8.335938 8.230469 L 8.710938 8.175781 L 8.875 7.828125 " fill-opacity="1" fill-rule="nonzero"/><path fill="#ffffff" d="M 11.375 7.828125 L 11.542969 8.175781 L 11.914062 8.230469 L 11.644531 8.503906 L 11.707031 8.882812 L 11.375 8.703125 L 11.039062 8.882812 L 11.105469 8.503906 L 10.835938 8.230469 L 11.207031 8.175781 L 11.375 7.828125 " fill-opacity="1" fill-rule="nonzero"/><path fill="#ffffff" d="M 13.820312 7.867188 L 13.988281 8.210938 L 14.359375 8.269531 L 14.089844 8.539062 L 14.152344 8.917969 L 13.820312 8.738281 L 13.488281 8.917969 L 13.550781 8.539062 L 13.28125 8.269531 L 13.652344 8.210938 L 13.820312 7.867188 " fill-opacity="1" fill-rule="nonzero"/><path fill="#ffffff" d="M 12.625 8.878906 L 12.789062 9.222656 L 13.164062 9.28125 L 12.894531 9.550781 L 12.957031 9.929688 L 12.625 9.75 L 12.289062 9.929688 L 12.355469 9.550781 L 12.085938 9.28125 L 12.457031 9.222656 L 12.625 8.878906 " fill-opacity="1" fill-rule="nonzero"/><path fill="#ffffff" d="M 10.144531 8.914062 L 10.308594 9.261719 L 10.683594 9.316406 L 10.414062 9.585938 L 10.476562 9.964844 L 10.144531 9.785156 L 9.808594 9.964844 L 9.875 9.585938 L 9.605469 9.316406 L 9.976562 9.261719 L 10.144531 8.914062 " fill-opacity="1" fill-rule="nonzero"/><path fill="#ffffff" d="M 7.679688 8.878906 L 7.847656 9.222656 L 8.21875 9.28125 L 7.949219 9.550781 L 8.011719 9.929688 L 7.679688 9.75 L 7.347656 9.929688 L 7.410156 9.550781 L 7.140625 9.28125 L 7.511719 9.222656 L 7.679688 8.878906 " fill-opacity="1" fill-rule="nonzero"/><path fill="#ffffff" d="M 5.214844 8.878906 L 5.382812 9.222656 L 5.753906 9.28125 L 5.484375 9.550781 L 5.550781 9.929688 L 5.214844 9.75 L 4.882812 9.929688 L 4.945312 9.550781 L 4.675781 9.28125 L 5.050781 9.222656 L 5.214844 8.878906 " fill-opacity="1" fill-rule="nonzero"/><path fill="#ffffff" d="M 2.734375 8.914062 L 2.902344 9.261719 L 3.273438 9.316406 L 3.003906 9.585938 L 3.070312 9.964844 L 2.734375 9.785156 L 2.402344 9.964844 L 2.464844 9.585938 L 2.195312 9.316406 L 2.570312 9.261719 L 2.734375 8.914062 " fill-opacity="1" fill-rule="nonzero"/><path fill="#ffffff" d="M 1.539062 10.015625 L 1.707031 10.363281 L 2.078125 10.417969 L 1.808594 10.6875 L 1.871094 11.070312 L 1.539062 10.890625 L 1.207031 11.070312 L 1.269531 10.6875 L 1 10.417969 L 1.371094 10.363281 L 1.539062 10.015625 " fill-opacity="1" fill-rule="nonzero"/><path fill="#ffffff" d="M 4.003906 9.996094 L 4.167969 10.34375 L 4.542969 10.398438 L 4.273438 10.667969 L 4.335938 11.050781 L 4.003906 10.871094 L 3.667969 11.050781 L 3.730469 10.667969 L 3.460938 10.398438 L 3.835938 10.34375 L 4.003906 9.996094 " fill-opacity="1" fill-rule="nonzero"/><path fill="#ffffff" d="M 6.429688 10.015625 L 6.597656 10.363281 L 6.96875 10.417969 L 6.699219 10.6875 L 6.765625 11.070312 L 6.429688 10.890625 L 6.097656 11.070312 L 6.160156 10.6875 L 5.890625 10.417969 L 6.265625 10.363281 L 6.429688 10.015625 " fill-opacity="1" fill-rule="nonzero"/><path fill="#ffffff" d="M 8.929688 9.960938 L 9.097656 10.308594 L 9.46875 10.363281 L 9.199219 10.632812 L 9.261719 11.015625 L 8.929688 10.835938 L 8.597656 11.015625 L 8.660156 10.632812 L 8.390625 10.363281 L 8.761719 10.308594 L 8.929688 9.960938 " fill-opacity="1" fill-rule="nonzero"/><path fill="#ffffff" d="M 11.339844 9.980469 L 11.507812 10.324219 L 11.878906 10.382812 L 11.609375 10.652344 L 11.671875 11.03125 L 11.339844 10.851562 L 11.007812 11.03125 L 11.070312 10.652344 L 10.800781 10.382812 L 11.171875 10.324219 L 11.339844 9.980469 " fill-opacity="1" fill-rule="nonzero"/><path fill="#ffffff" d="M 13.839844 10.015625 L 14.003906 10.363281 L 14.378906 10.417969 L 14.109375 10.6875 L 14.171875 11.070312 L 13.839844 10.890625 L 13.503906 11.070312 L 13.570312 10.6875 L 13.300781 10.417969 L 13.671875 10.363281 L 13.839844 10.015625 " fill-opacity="1" fill-rule="nonzero"/><path fill="#ffffff" d="M 12.589844 11.046875 L 12.753906 11.390625 L 13.128906 11.445312 L 12.859375 11.71875 L 12.921875 12.097656 L 12.589844 11.917969 L 12.253906 12.097656 L 12.320312 11.71875 L 12.050781 11.445312 L 12.421875 11.390625 L 12.589844 11.046875 " fill-opacity="1" fill-rule="nonzero"/><path fill="#ffffff" d="M 10.160156 11.0625 L 10.328125 11.410156 L 10.699219 11.464844 L 10.429688 11.734375 L 10.492188 12.117188 L 10.160156 11.9375 L 9.828125 12.117188 L 9.890625 11.734375 L 9.621094 11.464844 L 9.992188 11.410156 L 10.160156 11.0625 " fill-opacity="1" fill-rule="nonzero"/><path fill="#ffffff" d="M 7.664062 11.027344 L 7.828125 11.375 L 8.203125 11.429688 L 7.933594 11.699219 L 7.996094 12.078125 L 7.664062 11.898438 L 7.328125 12.078125 L 7.390625 11.699219 L 7.121094 11.429688 L 7.496094 11.375 L 7.664062 11.027344 " fill-opacity="1" fill-rule="nonzero"/><path fill="#ffffff" d="M 5.199219 11.027344 L 5.367188 11.375 L 5.738281 11.429688 L 5.46875 11.699219 L 5.53125 12.078125 L 5.199219 11.898438 L 4.867188 12.078125 L 4.929688 11.699219 L 4.660156 11.429688 L 5.03125 11.375 L 5.199219 11.027344 " fill-opacity="1" fill-rule="nonzero"/><path fill="#ffffff" d="M 2.753906 11.046875 L 2.917969 11.390625 L 3.292969 11.445312 L 3.023438 11.71875 L 3.085938 12.097656 L 2.753906 11.917969 L 2.417969 12.097656 L 2.484375 11.71875 L 2.214844 11.445312 L 2.585938 11.390625 L 2.753906 11.046875 " fill-opacity="1" fill-rule="nonzero"/><path fill="#ffffff" d="M 1.539062 12.164062 L 1.707031 12.511719 L 2.078125 12.566406 L 1.808594 12.835938 L 1.871094 13.21875 L 1.539062 13.039062 L 1.207031 13.21875 L 1.269531 12.835938 L 1 12.566406 L 1.371094 12.511719 L 1.539062 12.164062 " fill-opacity="1" fill-rule="nonzero"/><path fill="#ffffff" d="M 4.019531 12.09375 L 4.1875 12.441406 L 4.558594 12.496094 L 4.289062 12.765625 L 4.351562 13.144531 L 4.019531 12.964844 L 3.6875 13.144531 L 3.75 12.765625 L 3.480469 12.496094 L 3.851562 12.441406 L 4.019531 12.09375 " fill-opacity="1" fill-rule="nonzero"/><path fill="#ffffff" d="M 6.429688 12.09375 L 6.597656 12.441406 L 6.96875 12.496094 L 6.699219 12.765625 L 6.765625 13.144531 L 6.429688 12.964844 L 6.097656 13.144531 L 6.160156 12.765625 L 5.890625 12.496094 L 6.265625 12.441406 L 6.429688 12.09375 " fill-opacity="1" fill-rule="nonzero"/><path fill="#ffffff" d="M 8.875 12.128906 L 9.042969 12.476562 L 9.414062 12.53125 L 9.144531 12.800781 L 9.210938 13.183594 L 8.875 13.003906 L 8.542969 13.183594 L 8.605469 12.800781 L 8.335938 12.53125 L 8.710938 12.476562 L 8.875 12.128906 " fill-opacity="1" fill-rule="nonzero"/><path fill="#ffffff" d="M 11.390625 12.183594 L 11.558594 12.53125 L 11.933594 12.585938 L 11.664062 12.855469 L 11.726562 13.238281 L 11.390625 13.054688 L 11.058594 13.238281 L 11.121094 12.855469 L 10.851562 12.585938 L 11.226562 12.53125 L 11.390625 12.183594 " fill-opacity="1" fill-rule="nonzero"/><path fill="#ffffff" d="M 13.839844 12.128906 L 14.003906 12.476562 L 14.378906 12.53125 L 14.109375 12.800781 L 14.171875 13.183594 L 13.839844 13.003906 L 13.503906 13.183594 L 13.570312 12.800781 L 13.300781 12.53125 L 13.671875 12.476562 L 13.839844 12.128906 " fill-opacity="1" fill-rule="nonzero"/><path fill="#ffffff" d="M 12.605469 13.195312 L 12.773438 13.542969 L 13.144531 13.597656 L 12.875 13.867188 L 12.941406 14.246094 L 12.605469 14.070312 L 12.273438 14.246094 L 12.335938 13.867188 L 12.066406 13.597656 L 12.441406 13.542969 L 12.605469 13.195312 " fill-opacity="1" fill-rule="nonzero"/><path fill="#ffffff" d="M 10.144531 13.210938 L 10.308594 13.558594 L 10.683594 13.613281 L 10.414062 13.886719 L 10.476562 14.265625 L 10.144531 14.085938 L 9.808594 14.265625 L 9.875 13.886719 L 9.605469 13.613281 L 9.976562 13.558594 L 10.144531 13.210938 " fill-opacity="1" fill-rule="nonzero"/><path fill="#ffffff" d="M 7.679688 13.195312 L 7.847656 13.542969 L 8.21875 13.597656 L 7.949219 13.867188 L 8.011719 14.246094 L 7.679688 14.070312 L 7.347656 14.246094 L 7.410156 13.867188 L 7.140625 13.597656 L 7.511719 13.542969 L 7.679688 13.195312 " fill-opacity="1" fill-rule="nonzero"/><path fill="#ffffff" d="M 5.25 13.175781 L 5.417969 13.523438 L 5.792969 13.578125 L 5.519531 13.847656 L 5.585938 14.230469 L 5.25 14.050781 L 4.917969 14.230469 L 4.980469 13.847656 L 4.710938 13.578125 L 5.085938 13.523438 L 5.25 13.175781 " fill-opacity="1" fill-rule="nonzero"/><path fill="#ffffff" d="M 2.804688 13.210938 L 2.972656 13.558594 L 3.34375 13.613281 L 3.074219 13.886719 L 3.140625 14.265625 L 2.804688 14.085938 L 2.472656 14.265625 L 2.535156 13.886719 L 2.265625 13.613281 L 2.640625 13.558594 L 2.804688 13.210938 " fill-opacity="1" fill-rule="nonzero"/><path fill="#ffffff" d="M 1.554688 14.242188 L 1.722656 14.589844 L 2.097656 14.644531 L 1.828125 14.914062 L 1.890625 15.296875 L 1.554688 15.117188 L 1.222656 15.296875 L 1.289062 14.914062 L 1.015625 14.644531 L 1.390625 14.589844 L 1.554688 14.242188 " fill-opacity="1" fill-rule="nonzero"/><path fill="#ffffff" d="M 3.984375 14.277344 L 4.152344 14.625 L 4.523438 14.679688 L 4.253906 14.953125 L 4.320312 15.332031 L 3.984375 15.152344 L 3.652344 15.332031 L 3.714844 14.953125 L 3.445312 14.679688 L 3.816406 14.625 L 3.984375 14.277344 " fill-opacity="1" fill-rule="nonzero"/><path fill="#ffffff" d="M 6.464844 14.222656 L 6.632812 14.570312 L 7.003906 14.625 L 6.734375 14.898438 L 6.796875 15.277344 L 6.464844 15.097656 L 6.132812 15.277344 L 6.195312 14.898438 L 5.925781 14.625 L 6.300781 14.570312 L 6.464844 14.222656 " fill-opacity="1" fill-rule="nonzero"/><path fill="#ffffff" d="M 8.875 14.242188 L 9.042969 14.589844 L 9.414062 14.644531 L 9.144531 14.914062 L 9.210938 15.296875 L 8.875 15.117188 L 8.542969 15.296875 L 8.605469 14.914062 L 8.335938 14.644531 L 8.710938 14.589844 L 8.875 14.242188 " fill-opacity="1" fill-rule="nonzero"/><path fill="#ffffff" d="M 11.410156 14.277344 L 11.578125 14.625 L 11.949219 14.679688 L 11.679688 14.953125 L 11.742188 15.332031 L 11.410156 15.152344 L 11.078125 15.332031 L 11.140625 14.953125 L 10.871094 14.679688 L 11.242188 14.625 L 11.410156 14.277344 " fill-opacity="1" fill-rule="nonzero"/><path fill="#ffffff" d="M 13.804688 14.261719 L 13.96875 14.605469 L 14.34375 14.664062 L 14.074219 14.933594 L 14.136719 15.3125 L 13.804688 15.132812 L 13.46875 15.3125 L 13.535156 14.933594 L 13.261719 14.664062 L 13.636719 14.605469 L 13.804688 14.261719 " fill-opacity="1" fill-rule="nonzero"/></svg>